<?xml version="1.0" standalone="no"?>
<!DOCTYPE svg PUBLIC "-//W3C//DTD SVG 20010904//EN"
 "http://www.w3.org/TR/2001/REC-SVG-20010904/DTD/svg10.dtd">
<svg version="1.0" xmlns="http://www.w3.org/2000/svg"
 width="2739.000000pt" height="2739.000000pt" viewBox="0 0 2739.000000 2739.000000"
 preserveAspectRatio="xMidYMid meet">
<metadata>
Created by potrace 1.14, written by Peter Selinger 2001-2017
</metadata>
<g transform="translate(0.000000,2739.000000) scale(0.100000,-0.100000)"
fill="#000000" stroke="none">
<path d="M13238 27385 c-2 -2 -73 -6 -158 -9 -162 -6 -260 -12 -371 -21 -36
-3 -99 -8 -140 -10 -41 -3 -87 -7 -104 -9 -26 -4 -62 -8 -215 -21 -19 -2 -55
-6 -80 -9 -25 -3 -88 -10 -140 -16 -52 -6 -106 -13 -120 -15 -14 -2 -45 -6
-70 -10 -25 -3 -56 -8 -70 -10 -14 -2 -50 -7 -80 -10 -30 -4 -73 -10 -95 -15
-22 -5 -64 -11 -93 -15 -29 -3 -76 -10 -105 -16 -45 -8 -150 -27 -250 -45 -50
-8 -360 -73 -452 -94 -49 -11 -99 -22 -110 -24 -11 -2 -40 -9 -65 -15 -25 -6
-52 -13 -60 -15 -8 -2 -62 -16 -120 -30 -58 -15 -170 -44 -250 -66 -80 -22
-152 -42 -160 -44 -90 -23 -472 -143 -660 -208 -80 -27 -149 -51 -155 -52 -5
-2 -17 -6 -25 -9 -8 -4 -58 -22 -110 -41 -146 -53 -214 -79 -352 -134 -151
-61 -420 -174 -497 -209 -251 -115 -331 -153 -511 -242 -352 -174 -861 -455
-1080 -596 -19 -12 -70 -44 -113 -71 -131 -82 -556 -365 -657 -438 -183 -133
-303 -222 -429 -319 -69 -54 -139 -108 -155 -120 -16 -12 -34 -26 -40 -32 -6
-5 -45 -37 -86 -70 -94 -76 -342 -285 -395 -333 -22 -21 -78 -71 -124 -112
-47 -41 -97 -86 -111 -100 -15 -14 -65 -60 -111 -104 -256 -239 -622 -614
-814 -832 -38 -43 -77 -86 -85 -94 -9 -8 -26 -28 -38 -44 -12 -15 -41 -50 -64
-76 -24 -26 -61 -69 -83 -95 -22 -27 -45 -53 -50 -59 -6 -6 -28 -33 -50 -61
-22 -27 -42 -52 -45 -55 -4 -4 -42 -51 -97 -120 -6 -8 -41 -51 -76 -95 -52
-65 -241 -315 -303 -400 -109 -151 -166 -232 -299 -430 -174 -259 -425 -665
-547 -885 -14 -25 -34 -61 -45 -80 -68 -120 -244 -454 -307 -585 -81 -165
-171 -355 -211 -445 -20 -47 -49 -112 -65 -145 -27 -59 -119 -281 -200 -485
-43 -106 -168 -442 -175 -470 -2 -8 -29 -89 -60 -180 -46 -136 -119 -363 -129
-405 -2 -5 -5 -17 -8 -25 -29 -80 -195 -709 -214 -810 -3 -13 -14 -60 -24
-105 -10 -45 -21 -92 -24 -105 -2 -14 -14 -70 -25 -125 -12 -55 -24 -116 -27
-135 -3 -19 -12 -65 -20 -102 -7 -37 -16 -82 -19 -100 -3 -18 -7 -44 -10 -58
-3 -14 -7 -38 -9 -55 -3 -16 -12 -70 -20 -120 -8 -49 -18 -110 -21 -135 -3
-25 -8 -56 -10 -70 -2 -14 -7 -45 -10 -70 -3 -25 -8 -52 -10 -60 -3 -8 -7 -42
-10 -76 -3 -33 -7 -69 -9 -80 -2 -10 -7 -48 -11 -84 -4 -36 -9 -78 -11 -95 -2
-16 -6 -59 -9 -95 -3 -36 -8 -78 -10 -95 -2 -16 -7 -66 -10 -110 -4 -44 -9
-96 -11 -115 -1 -19 -6 -82 -9 -140 -3 -58 -8 -124 -10 -148 -13 -128 -20
-409 -19 -832 0 -422 4 -606 20 -845 9 -137 31 -418 39 -500 2 -22 7 -65 10
-95 7 -64 14 -133 20 -175 2 -16 7 -57 11 -90 3 -33 8 -69 10 -80 2 -11 9 -58
14 -105 10 -79 15 -117 25 -180 5 -33 35 -208 41 -240 2 -14 7 -41 10 -60 5
-35 33 -187 40 -225 2 -11 6 -31 9 -45 24 -131 95 -450 141 -633 19 -78 37
-149 39 -157 4 -18 36 -137 64 -240 11 -41 32 -113 46 -160 14 -47 28 -94 30
-106 3 -12 12 -41 21 -65 8 -24 17 -52 19 -61 4 -20 73 -236 82 -258 3 -8 7
-17 8 -20 8 -26 48 -147 65 -195 12 -33 33 -91 47 -130 13 -38 31 -88 40 -110
8 -22 19 -49 23 -60 101 -264 289 -717 323 -780 6 -11 12 -22 12 -25 9 -38
263 -555 385 -785 133 -251 401 -711 512 -878 21 -32 38 -60 38 -63 0 -11 437
-649 493 -719 4 -5 40 -53 79 -105 90 -120 269 -352 283 -366 5 -6 24 -28 40
-49 42 -53 127 -157 142 -173 7 -7 29 -34 50 -60 21 -26 41 -49 44 -52 3 -3
35 -39 70 -80 35 -41 68 -80 74 -86 5 -6 44 -49 85 -95 290 -323 779 -812
1030 -1029 14 -12 43 -38 65 -59 22 -20 87 -77 145 -126 58 -50 107 -92 110
-95 3 -3 30 -25 60 -50 30 -25 57 -47 60 -50 4 -4 123 -100 215 -172 6 -5 21
-18 35 -29 14 -12 41 -33 60 -48 19 -14 40 -30 46 -36 7 -5 24 -19 40 -30 15
-11 51 -38 80 -60 29 -22 62 -47 74 -55 12 -8 31 -23 43 -32 12 -9 54 -40 92
-67 39 -28 75 -55 80 -59 6 -5 24 -17 40 -28 17 -10 32 -21 35 -24 5 -6 33
-25 195 -134 50 -33 95 -64 100 -69 30 -24 385 -248 555 -349 341 -204 558
-323 910 -499 706 -352 1399 -628 2145 -854 181 -54 475 -138 532 -150 10 -2
72 -17 138 -34 159 -40 284 -69 342 -81 26 -6 91 -19 143 -30 52 -11 118 -24
145 -29 28 -5 70 -14 95 -19 25 -6 63 -13 85 -16 22 -4 63 -10 90 -16 28 -5
66 -12 85 -14 19 -3 46 -8 60 -10 30 -6 154 -26 190 -31 14 -2 72 -11 130 -19
58 -8 128 -18 155 -21 28 -3 79 -10 115 -15 36 -5 94 -12 130 -15 36 -3 81 -8
100 -10 56 -7 130 -14 198 -20 180 -15 183 -15 390 -30 377 -26 1425 -27 1694
0 20 2 76 7 125 10 165 11 304 22 378 30 22 3 65 7 95 10 30 3 71 7 90 10 88
11 118 15 165 20 55 6 186 23 225 30 14 2 61 9 105 15 70 10 273 43 345 55 14
3 66 12 115 20 50 9 106 20 125 25 19 5 51 11 70 14 47 7 198 39 340 71 63 15
122 28 130 30 8 2 42 10 76 19 33 8 69 17 80 19 10 2 39 9 64 16 25 7 52 14
60 16 8 2 59 15 113 30 53 14 105 28 115 30 19 5 70 19 222 64 58 17 112 33
120 35 22 6 272 86 290 93 8 3 20 7 25 9 44 11 468 161 520 183 11 5 92 37
180 71 189 74 528 218 680 289 59 28 109 51 111 51 8 0 494 244 609 305 276
146 796 449 803 467 2 4 8 8 12 8 21 0 482 305 729 483 266 191 586 438 786
606 49 42 101 85 114 96 13 11 29 25 35 30 6 6 45 39 86 75 41 36 90 79 109
95 168 146 471 436 690 659 183 188 204 209 294 308 42 47 87 96 100 110 61
67 116 129 154 174 23 27 51 60 64 74 30 34 256 306 295 355 18 22 54 67 80
101 27 34 58 73 69 89 11 15 25 32 30 39 6 6 27 34 47 61 21 28 41 55 45 60 5
6 33 44 63 85 30 41 61 82 67 90 37 44 454 662 510 755 7 11 68 112 136 225
135 222 224 379 307 535 29 55 56 105 61 110 33 44 479 974 479 1000 0 2 12
30 26 62 46 104 52 118 59 143 4 14 11 30 15 35 3 6 15 33 25 60 10 28 26 68
35 90 55 125 194 515 295 826 54 168 190 626 200 677 2 9 17 71 34 137 28 106
82 332 95 397 3 13 23 109 45 213 21 105 41 204 44 220 3 17 14 82 26 145 20
112 24 137 36 210 3 19 10 60 15 90 5 30 12 80 15 110 3 30 8 62 10 70 2 8 9
56 15 105 6 50 13 104 15 120 5 39 13 107 20 170 3 28 8 73 11 100 7 55 10 93
20 205 3 41 7 91 9 110 3 33 14 194 20 285 27 401 27 1271 0 1665 -2 25 -6 90
-9 145 -4 56 -8 119 -10 140 -5 45 -17 173 -21 225 -2 19 -6 58 -9 85 -3 28
-8 73 -11 100 -15 141 -24 216 -30 244 -2 13 -7 47 -10 75 -3 28 -7 62 -9 76
-2 14 -7 47 -11 73 -4 27 -8 59 -11 70 -2 12 -6 40 -9 62 -3 22 -7 51 -9 65
-3 14 -7 41 -10 60 -3 19 -8 49 -11 65 -3 17 -13 68 -21 115 -8 47 -26 141
-40 210 -13 69 -26 136 -29 150 -2 14 -11 54 -19 90 -27 116 -58 255 -61 270
-2 8 -15 61 -29 116 -14 56 -28 112 -30 125 -3 13 -5 24 -6 24 -1 0 -3 7 -5
15 -7 34 -65 249 -100 370 -108 373 -260 824 -376 1115 -7 17 -13 32 -14 35
-32 95 -212 523 -304 725 -138 301 -355 731 -461 915 -21 36 -51 90 -68 120
-16 30 -39 71 -50 90 -12 19 -27 46 -35 60 -130 234 -466 759 -649 1015 -323
451 -669 887 -965 1215 -17 19 -41 46 -53 60 -77 89 -311 337 -507 535 -64 65
-324 314 -409 392 -49 44 -101 92 -115 105 -45 41 -161 143 -249 217 -47 40
-96 83 -110 94 -14 12 -73 60 -130 107 -58 46 -110 89 -116 95 -6 5 -26 21
-44 35 -18 14 -85 66 -149 115 -96 75 -519 385 -573 420 -46 30 -385 256 -393
263 -13 10 -211 132 -387 238 -131 79 -168 100 -273 159 -25 14 -66 37 -92 51
-415 231 -783 410 -1359 660 -92 40 -516 204 -527 204 -7 0 -17 4 -22 9 -16
14 -516 183 -745 251 -41 13 -109 33 -150 46 -286 88 -1000 258 -1300 309 -19
3 -53 10 -75 15 -22 5 -60 12 -85 15 -25 4 -67 11 -95 16 -27 5 -70 12 -95 15
-25 2 -52 7 -60 9 -8 3 -33 7 -55 10 -35 5 -79 11 -205 30 -19 2 -75 9 -125
15 -49 6 -101 13 -115 15 -14 2 -50 7 -80 9 -30 3 -75 7 -100 10 -43 5 -115
12 -210 21 -25 3 -81 7 -125 10 -44 3 -100 7 -125 10 -25 2 -94 7 -155 11 -60
3 -137 8 -170 10 -73 5 -1113 13 -1117 9z"/>
</g>
</svg>
