<svg version="1.2" xmlns="http://www.w3.org/2000/svg" viewBox="0 0 500 500" width="500" height="500">
	<title>noFollowing-error-svg</title>
	<style>
		.s0 { fill: #ebebeb } 
		.s1 { fill: #e0e0e0 } 
		.s2 { fill: #f0f0f0 } 
		.s3 { fill: #f5f5f5 } 
		.s4 { fill: #407bff } 
		.s5 { opacity: .2;fill: #ffffff } 
		.s6 { opacity: .5;fill: #ffffff } 
		.s7 { fill: #263238 } 
		.s8 { opacity: .3;fill: #ffffff } 
		.s9 { opacity: .6;fill: #ffffff } 
		.s10 { opacity: .4;fill: #ffffff } 
		.s11 { opacity: .3;fill: #000000 } 
		.s12 { fill: #ffffff } 
		.s13 { opacity: .2;fill: #000000 } 
		.s14 { fill: #e4897b } 
		.s15 { opacity: .7;fill: #ffffff } 
		.s16 { fill: #de5753 } 
	</style>
	<g id="Background_Complete">
		<g id="Layer">
			<g id="Layer">
				<path id="Layer" class="s0" d="m55.9 260.8h108.5c4.8 0 8.8 4 8.8 8.8l12 76.5h-126.1l-12-76.5c0-4.8 3.9-8.8 8.8-8.8z"/>
				<path id="Layer" class="s1" d="m184.9 290.4l-0.1-0.4h42v93h-52v-81.9c0-5.8 4.3-10.5 10.1-10.7z"/>
				<path id="Layer" class="s2" d="m227.2 290.4c5.9 0 10.8 4.8 10.8 10.7v81.9h-21.6v-81.9c0-5.9 4.8-10.7 10.8-10.7z"/>
				<path id="Layer" class="s1" d="m63.9 290.4l-0.1-0.4h42v93h-52v-81.9c0-5.8 4.3-10.5 10.1-10.7z"/>
				<path id="Layer" class="s1" d="m209.4 383h-92.4v-65.5h92.4z"/>
				<path id="Layer" class="s3" d="m99.4 333.5h104c6.2 0 11.3-5.1 11.3-11.4 0-6.2-5.1-11.3-11.3-11.3h-104z"/>
				<path id="Layer" class="s2" d="m106.2 290.4c5.9 0 10.8 4.8 10.8 10.7v81.9h-21.6v-81.9c0-5.9 4.8-10.7 10.8-10.7z"/>
				<path id="Layer" class="s1" d="m76.7 347.2h-17.6l-12-77.6c0-4.8 3.9-8.8 8.8-8.8 4.9 0 8.8 4 8.8 8.8z"/>
			</g>
		</g>
	</g>
	<g id="Shadow_1_">
		<path id="_x3C_Path_x3E__359_" class="s3" d="m250 427.6c-107.2 0-193.9-5.1-193.9-11.4 0-6.2 86.7-11.3 193.9-11.3 107.2 0 193.9 5.1 193.9 11.3 0 6.3-86.7 11.4-193.9 11.4z"/>
	</g>
	<g id="Plant_1_">
		<g id="Layer">
			<g id="Layer">
				<path id="Layer" class="s4" d="m91.3 384.6c-0.2-1-3.7-25.1 3.3-33.5q2.4-2.7 5.8-2.8c14.2-0.4 16.1 11 16.2 11.1l-1.7 0.3c-0.1-0.4-1.8-10-14.4-9.7-1.8 0-3.3 0.7-4.6 2.2-6.5 7.8-3 32-3 32.2z"/>
			</g>
			<g id="Layer">
				<path id="Layer" class="s4" d="m90.4 383.5h-1.7c0-0.2 0.6-22.3-10.3-26.8-10.6-4.5-15.4 4.7-15.6 5.1l-1.5-0.8c0.1-0.1 5.7-10.9 17.8-5.9 11.9 5 11.3 27.5 11.3 28.4z"/>
			</g>
			<g id="Layer">
				<path id="Layer" class="s4" d="m90.5 385.3c0-0.4-0.1-35.2-6.9-45.4-6.6-9.8-17.1-5.2-17.5-5l-0.7-1.5c0.1-0.1 12.2-5.4 19.6 5.6 7 10.6 7.1 44.8 7.1 46.3z"/>
			</g>
			<path id="Layer" class="s4" d="m102.5 349.1c0 0-6.2 2.3-4.4 7.7 1.9 5.3 21.4 14.2 21.4 14.2 0 0 8.2-7.5 0.7-19.7-7.5-12.2-17.6-6-17.7-2.2z"/>
			<path id="Layer" class="s4" d="m83.3 338.1c0 0 4.3-0.5 4-3.2-0.4-2.7-17.1-9.5-26.9 1.6 0 0 6.3 10.8 15.4 11 9.1 0.1 7.5-9.4 7.5-9.4z"/>
			<path id="Layer" class="s4" d="m78.8 355.9c0 0 3-2.4-0.3-3.6-3.3-1.2-19.3-0.9-19.5 15 0 0 18.7 3.1 21-2.9 2.3-6.1-1.2-8.5-1.2-8.5z"/>
			<path id="Layer" class="s5" d="m102.5 349.1c0 0-6.2 2.3-4.4 7.7 1.9 5.3 21.4 14.2 21.4 14.2 0 0 8.2-7.5 0.7-19.7-7.5-12.2-17.6-6-17.7-2.2z"/>
			<path id="Layer" class="s5" d="m83.3 338.1c0 0 4.3-0.5 4-3.2-0.4-2.7-17.1-9.5-26.9 1.6 0 0 6.3 10.8 15.4 11 9.1 0.1 7.5-9.4 7.5-9.4z"/>
			<path id="Layer" class="s5" d="m78.8 355.9c0 0 3-2.4-0.3-3.6-3.3-1.2-19.3-0.9-19.5 15 0 0 18.7 3.1 21-2.9 2.3-6.1-1.2-8.5-1.2-8.5z"/>
			<path id="Layer" class="s4" d="m105.8 417h-29l-3.1-31.7h35.2z"/>
			<path id="Layer" class="s6" d="m105.8 417h-29l-3.1-31.7h35.2z"/>
			<path id="Layer" class="s4" d="m72.1 381.8h38.4v7h-38.4z"/>
			<path id="Layer" class="s5" d="m72.1 381.8h38.4v7h-38.4z"/>
		</g>
	</g>
	<g id="Device">
		<g id="Layer">
			<path id="Layer" class="s7" d="m390.7 417h-168c-5.7 0-10.4-4.7-10.4-10.4v-318.7c0-5.7 4.7-10.4 10.4-10.4h168c5.7 0 10.4 4.7 10.4 10.4v318.7c0 5.7-4.7 10.4-10.4 10.4z"/>
			<path id="Layer" class="s4" d="m394.8 88.9l-0.1 316.1c0 2.6-2 4.6-4.6 4.6h-167.2c-2.4 0-4.2-1.8-4.2-4.2v-316.9c0-2.1 1.6-3.9 3.6-3.9h41.8c1.2 0 2.3 0.8 2.7 1.9l1.7 4.3c0.5 1.1 1.5 1.8 2.7 1.8h71.2c1.1 0 2.2-0.7 2.6-1.8l1.8-4.3c0.4-1.1 1.5-1.9 2.7-1.9h41.2c2.2 0 4 2 4 4.3z"/>
			<path id="Layer" class="s8" d="m218.8 104.4h175.9v257.2h-176z"/>
			<path id="Layer" class="s9" d="m302.8 87.5c-1.4 0-2.5-1.1-2.5-2.4 0-1.4 1.1-2.5 2.5-2.5 1.3 0 2.4 1.1 2.4 2.5 0 1.3-1.1 2.4-2.4 2.4z"/>
			<path id="Layer" class="s9" d="m310.1 85.1c0 0.8-0.7 1.5-1.6 1.5-0.8 0-1.5-0.7-1.5-1.5 0-0.9 0.7-1.6 1.5-1.6 0.9 0 1.6 0.7 1.6 1.6z"/>
			<g id="Layer">
				<path id="Layer" class="s9" d="m240.8 97.4h-2.2v-2.9h2.2z"/>
				<path id="Layer" class="s9" d="m237.2 97.4h-2.1v-3.9h2.1z"/>
				<path id="Layer" class="s9" d="m233.7 97.4h-2.2v-4.9h2.2z"/>
				<path id="Layer" class="s9" d="m230.1 97.4h-2.1v-5.8h2.1z"/>
			</g>
			<g id="Layer">
				<path id="Layer" class="s9" d="m374 93.4h1.3v2.9h-1.3z"/>
				<path id="Layer" class="s9" d="m386.4 97.4h-10.2v-5h10.2z"/>
			</g>
			<path id="Layer" class="s10" d="m282.7 158.8c0 9.9-5.3 18.7-13.3 23.4-4.1 2.5-8.9 3.9-14.1 3.9-4.6 0-9-1.1-12.8-3.2-8.7-4.6-14.5-13.7-14.5-24.1 0-15.1 12.2-27.4 27.3-27.4 15.2 0 27.4 12.3 27.4 27.4z"/>
			<path id="Layer" class="s11" d="m269.4 182.3c-4.1 2.4-8.9 3.8-14.1 3.8-4.6 0-9-1.1-12.8-3.2q0.5-0.1 1-0.1 0 0 0 0 0 0 0-0.1c2.6-2.8 2.5-8.8 1.7-14q-0.3-0.5-0.6-1c-0.5-0.9-1.6-2.7-2.3-5.6-1.2-0.9-2-2.2-2.5-3.6-0.4-1.6 0.1-3.1 1.3-3.9q-0.2-1.2-0.2-2.5c0 0-3.3-2.9-1.2-4.5 2-1.6 2.5-3.9 3.8-6.5 1.2-2.7 6.8-6.2 12.8-2.1 0 0 3.1-1.1 4.5-0.3 1.4 0.8 2.6 2.9 2.6 2.9 0 0 1.5-1.8 3.2-0.1 1.6 1.6 0.3 7.7 1.7 9.1 1.2 1.4-1.2 3.1-1.7 3.4q-0.2 1.2-0.7 2.4c0.1 3.9-0.8 7.9-2.1 10.9q-0.2 0.5-0.5 1c-1.4 2.5-3.7 4.3-6.3 5.1q-0.9 0.3-1.9 0.4c0 1.2 0.1 2.4 0.4 3.5 0.7 2 2.4 3.6 5.8 4.2q0 0 0.1 0.1c0.7 0 1.4 0 2.1 0 1.9 0.1 3.6 0.3 5.2 0.5q0.3 0.1 0.7 0.1z"/>
			<g id="Layer">
				<path id="Layer" class="s4" d="m281.1 185.8h-7.1c-1.4 0-2.4-1-2.4-2.3v-7.2c0-1.3 1-2.4 2.4-2.4h7.1c1.3 0 2.4 1.1 2.4 2.4v7.2c0 1.3-1.1 2.3-2.4 2.3z"/>
				<path id="Layer" class="s11" d="m280.5 179.9c0 1.6-1.4 2.9-3 2.9-1.6 0-2.9-1.3-2.9-2.9 0-1.6 1.3-3 2.9-3 1.6 0 3 1.4 3 3z"/>
			</g>
			<path id="Layer" class="s6" d="m344.7 144h-38.1c-2.1 0-3.8-1.7-3.8-3.9 0-2.1 1.7-3.8 3.8-3.8h38.1c2.2 0 3.9 1.7 3.9 3.8 0 2.2-1.7 3.9-3.9 3.9z"/>
			<path id="Layer" class="s6" d="m365.7 158.8h-60.6c-1.3 0-2.3-1.1-2.3-2.3 0-1.3 1-2.3 2.3-2.3h60.6c1.2 0 2.3 1 2.3 2.3 0 1.2-1.1 2.3-2.3 2.3z"/>
			<path id="Layer" class="s6" d="m345.7 168.8h-40.6c-1.3 0-2.3-1.1-2.3-2.3 0-1.3 1-2.3 2.3-2.3h40.6c1.2 0 2.3 1 2.3 2.3 0 1.2-1.1 2.3-2.3 2.3z"/>
			<g id="Layer">
				<path id="Layer" class="s11" d="m318.2 402h-23.4c-1.3 0-2.3-1.1-2.3-2.4v-5.3c0-1.3 1-2.4 2.3-2.4h23.4c1.3 0 2.4 1.1 2.4 2.4v5.3c0 1.3-1.1 2.4-2.4 2.4z"/>
				<path id="Layer" class="s6" d="m356.8 375.1h-100.6c-1.2 0-2.3-1-2.3-2.3 0-1.3 1.1-2.3 2.3-2.3h100.6c1.3 0 2.3 1 2.3 2.3 0 1.3-1 2.3-2.3 2.3z"/>
				<path id="Layer" class="s6" d="m341.8 385.1h-70.6c-1.2 0-2.3-1-2.3-2.3 0-1.3 1.1-2.3 2.3-2.3h70.6c1.3 0 2.3 1 2.3 2.3 0 1.3-1 2.3-2.3 2.3z"/>
			</g>
			<g id="Layer">
				<path id="Layer" class="s10" d="m225.9 191.2h161.3v51.5h-161.3z"/>
				<path id="Layer" class="s6" d="m333.4 200.8h-29.9c-1.2 0-2.2-1-2.2-2.2 0-1.2 1-2.2 2.2-2.2h29.9c1.2 0 2.2 1 2.2 2.2 0 1.2-1 2.2-2.2 2.2z"/>
				<path id="Layer" class="s6" d="m361.4 209.8h-57.9c-1.2 0-2.2-1-2.2-2.2 0-1.2 1-2.2 2.2-2.2h57.9c1.2 0 2.2 1 2.2 2.2 0 1.2-1 2.2-2.2 2.2z"/>
				<path id="Layer" class="s11" d="m231.8 196.4h59.6v40.7h-59.6z"/>
				<path id="Layer" class="s11" d="m231.8 227.6l14.1-13.4 12 11.7 10.4-10.1 23 21.3h-59.5z"/>
				<path id="Layer" class="s6" d="m280.8 210.5c-2.2 0-4-1.8-4-4 0-2.2 1.8-4 4-4 2.2 0 3.9 1.8 3.9 4 0 2.2-1.7 4-3.9 4z"/>
			</g>
			<g id="Layer">
				<path id="Layer" class="s10" d="m225.9 247.7h161.3v51.5h-161.3z"/>
				<path id="Layer" class="s6" d="m333.4 257.3h-29.9c-1.2 0-2.2-1-2.2-2.2 0-1.2 1-2.2 2.2-2.2h29.9c1.2 0 2.2 1 2.2 2.2 0 1.2-1 2.2-2.2 2.2z"/>
				<path id="Layer" class="s6" d="m361.4 266.3h-57.9c-1.2 0-2.2-1-2.2-2.2 0-1.2 1-2.2 2.2-2.2h57.9c1.2 0 2.2 1 2.2 2.2 0 1.2-1 2.2-2.2 2.2z"/>
				<path id="Layer" class="s11" d="m231.8 252.9h59.6v40.7h-59.6z"/>
				<path id="Layer" class="s11" d="m231.8 284.1l14.1-13.4 12 11.7 10.4-10.1 23 21.3h-59.5z"/>
				<path id="Layer" class="s6" d="m280.8 267c-2.2 0-4-1.8-4-4 0-2.2 1.8-4 4-4 2.2 0 3.9 1.8 3.9 4 0 2.2-1.7 4-3.9 4z"/>
			</g>
			<g id="Layer">
				<path id="Layer" class="s10" d="m225.9 304.2h161.3v51.5h-161.3z"/>
				<path id="Layer" class="s6" d="m333.4 313.8h-29.9c-1.2 0-2.2-1-2.2-2.2 0-1.2 1-2.2 2.2-2.2h29.9c1.2 0 2.2 1 2.2 2.2 0 1.2-1 2.2-2.2 2.2z"/>
				<path id="Layer" class="s6" d="m361.4 322.8h-57.9c-1.2 0-2.2-1-2.2-2.2 0-1.2 1-2.2 2.2-2.2h57.9c1.2 0 2.2 1 2.2 2.2 0 1.2-1 2.2-2.2 2.2z"/>
				<path id="Layer" class="s11" d="m231.8 309.4h59.6v40.7h-59.6z"/>
				<path id="Layer" class="s11" d="m231.8 340.6l14.1-13.4 12 11.7 10.4-10.1 23 21.3h-59.5z"/>
				<path id="Layer" class="s6" d="m280.8 323.5c-2.2 0-4-1.8-4-4 0-2.2 1.8-4 4-4 2.2 0 3.9 1.8 3.9 4 0 2.2-1.7 4-3.9 4z"/>
			</g>
			<path id="Layer" class="s11" d="m218.8 104.4h175.9v23.1h-176z"/>
			<g id="Layer">
				<path id="Layer" class="s12" d="m235.1 107.7l-7.3 4 7.3 4.1 7.2-4.1z"/>
				<path id="Layer" class="s12" d="m235.1 117.4l-5.1-2.8-2.2 1.2 7.3 4 7.2-4-2.2-1.2z"/>
				<path id="Layer" class="s12" d="m235.1 121.5l-5.1-2.9-2.2 1.2 7.3 4.1 7.2-4.1-2.2-1.2z"/>
			</g>
			<path id="Layer" class="s4" d="m350 120.8h-23.4c-1.3 0-2.3-1-2.3-2.3v-5.4c0-1.3 1-2.3 2.3-2.3h23.4c1.3 0 2.4 1 2.4 2.3v5.4c0 1.3-1.1 2.3-2.4 2.3z"/>
			<path id="Layer" class="s4" d="m384 120.8h-23.4c-1.3 0-2.3-1-2.3-2.3v-5.4c0-1.3 1-2.3 2.3-2.3h23.4c1.3 0 2.4 1 2.4 2.3v5.4c0 1.3-1.1 2.3-2.4 2.3z"/>
			<path id="Layer" class="s5" d="m350 120.8h-23.4c-1.3 0-2.3-1-2.3-2.3v-5.4c0-1.3 1-2.3 2.3-2.3h23.4c1.3 0 2.4 1 2.4 2.3v5.4c0 1.3-1.1 2.3-2.4 2.3z"/>
			<path id="Layer" class="s5" d="m384 120.8h-23.4c-1.3 0-2.3-1-2.3-2.3v-5.4c0-1.3 1-2.3 2.3-2.3h23.4c1.3 0 2.4 1 2.4 2.3v5.4c0 1.3-1.1 2.3-2.4 2.3z"/>
		</g>
	</g>
	<g id="Character">
		<g id="_x3C_Group_x3E_">
			<path id="Layer" class="s4" d="m205.9 203.6c-5.1 2.1-9.5-3-9.7-9.2 0 0-4.7-3-10-6.2-4.5-2.8-9.4-5.7-12.3-7-0.7-0.3-1.3-0.8-1.8-1.4-4.1-5.3-2.2-20.6-2.2-20.6 9.5 1 28.5 18.2 36.8 26.5 8.3 8.3 4.3 15.9-0.8 17.9z"/>
			<path id="Layer" class="s13" d="m186.2 188.2c-4.5-2.8-9.4-5.7-12.3-7-0.7-0.3-1.3-0.8-1.8-1.4l6.7-5.9c0 0 5.9 7.7 7.4 14.3z"/>
			<path id="Layer" class="s14" d="m174.6 409.6l8.1 0.8 1.6-17.5-8.2-0.8z"/>
			<path id="Layer" class="s14" d="m134.1 409h7.9l0.7-18.3-7.9 0.1z"/>
			<path id="Layer" class="s7" d="m143.1 408.1l-9.6-0.1c-0.3 0.1-0.6 0.3-0.6 0.6l-1.6 7c-0.1 0.6 0.3 1.2 0.9 1.4q0.1 0 0.3 0c3.1-0.1 5.3-0.3 9.2-0.3 2.4 0 9.6 0.3 12.9 0.3 3.3 0 3.7-3.3 2.4-3.6-6.1-1.3-10.7-3.1-12.6-4.9-0.3-0.3-0.8-0.5-1.3-0.5z"/>
			<path id="Layer" fill-rule="evenodd" class="s4" d="m143.6 409.1q-0.1 0-0.1-0.1 0-0.1 0.1-0.2c0.3-0.2 2.8-1.7 3.7-1.3 0.2 0.1 0.3 0.3 0.3 0.5 0 0.4-0.1 0.8-0.4 1-0.4 0.3-1 0.5-1.5 0.4q-1.1 0-2.1-0.3zm0.6-0.2c0.9 0.3 1.9 0.2 2.8-0.2 0.2-0.1 0.3-0.4 0.2-0.6q0-0.3-0.1-0.3-0.1 0-0.2 0-1.5 0.3-2.7 1.1z"/>
			<path id="Layer" fill-rule="evenodd" class="s4" d="m143.6 409.2q-0.1-0.1-0.1-0.2c0-0.1 0.2-2.4 1.1-3.1 0.2-0.2 0.5-0.3 0.8-0.2 0.3 0 0.5 0.2 0.6 0.4 0.2 0.9-1.4 2.6-2.2 3h-0.1q-0.1 0.1-0.1 0.1zm1.2-3.1c-0.5 0.7-0.8 1.6-0.9 2.5 0.8-0.6 1.8-1.9 1.7-2.5 0 0 0-0.1-0.2-0.1h-0.1q-0.3 0-0.5 0.1z"/>
			<path id="Layer" class="s7" d="m183.6 407.8h-9.6c-0.3 0-0.6 0.2-0.6 0.5l-1.6 7c-0.1 0.7 0.3 1.3 0.9 1.4q0.1 0 0.3 0c3.1 0 5.3-0.2 9.2-0.2 2.4 0 9.6 0.2 12.9 0.2 3.3 0 3.7-3.2 2.4-3.5-6.1-1.3-10.7-3.2-12.6-4.9-0.3-0.3-0.8-0.5-1.3-0.5z"/>
			<path id="Layer" fill-rule="evenodd" class="s4" d="m184.1 408.9q-0.1 0-0.1-0.2 0-0.1 0.1-0.2c0.3-0.1 2.8-1.7 3.7-1.2 0.2 0.1 0.3 0.3 0.3 0.5 0 0.4-0.1 0.7-0.4 1-0.4 0.3-1 0.4-1.5 0.4q-1.1-0.1-2.1-0.3zm0.6-0.3c0.9 0.3 1.9 0.3 2.8-0.1 0.2-0.2 0.3-0.4 0.2-0.7q0-0.2-0.1-0.2-0.1-0.1-0.2-0.1-1.5 0.3-2.7 1.1z"/>
			<path id="Layer" fill-rule="evenodd" class="s4" d="m184.1 408.9q-0.1 0-0.1-0.1c0-0.1 0.2-2.4 1.1-3.1 0.2-0.2 0.5-0.3 0.8-0.3 0.3 0 0.5 0.2 0.6 0.5 0.2 0.8-1.4 2.6-2.2 3h-0.1q-0.1 0-0.1 0zm1.2-3c-0.5 0.7-0.8 1.5-0.9 2.4 0.8-0.6 1.8-1.9 1.7-2.4 0-0.1 0-0.2-0.2-0.2h-0.1q-0.3 0-0.5 0.2z"/>
			<path id="Layer" class="s13" d="m176.1 392.1l8.2 0.8-0.8 9-8.1-0.8z"/>
			<path id="Layer" class="s13" d="m134.8 390.8h7.8l-0.3 9.3h-7.9z"/>
			<g id="Layer">
				<path id="Layer" class="s7" d="m138 231h41.8c3.9 21.7 16.3 98.3 7.4 166.7l-14.1-1.8c0 0 1.3-90.7-11.2-124.2-1.4 17.9-3.1 37-4.6 47.2-3.6 25-11.4 79.6-11.4 79.6h-14.4c0 0 3-52.3 4.3-76.8 1.5-26.7 2.2-85.2 2.2-90.7z"/>
				<path id="Layer" class="s5" d="m131.5 398.5h14.4c0 0 7.8-54.6 11.4-79.6 1.5-10.2 3.2-29.3 4.6-47.2 1.9 4.9 3.4 11.1 4.7 18.1 7.4 40.2 6.5 106.1 6.5 106.1l14.1 2c8.9-68.3-3.5-145.4-7.5-166.4h-41.7c0 5-0.7 63.7-2.2 90.4-1.3 24.6-4.3 76.6-4.3 76.6z"/>
			</g>
			<path id="Layer" class="s4" d="m188.8 400.9l-17.4-2.6 0.5-4.8 18.2 2.4z"/>
			<path id="Layer" class="s4" d="m147.7 398.6h-17v-5l17.6-0.4z"/>
			<path id="Layer" class="s13" d="m161.9 271.7c1.9 4.9 3.4 11.1 4.7 18.1 1.2-16-3.5-32.9-3.5-32.9z"/>
			<path id="Layer" class="s14" d="m115.3 211.6c0 0 19.5 18 21.3 19.9 1.9 1.9 1.7 15.4 0 15.9-1.7 0.6-7.2 1.6-7.4 0-0.2-1.5 0.3-10.2 0.3-10.2l1.3-1.8-21.4-15.4z"/>
			<path id="Layer" class="s4" d="m130.8 162.5c-13.7 2.5-33.4 27.9-30.9 44.7 1.8 11.2 13 17.3 13 17.3l9.2-9.5c0 0-5.8-5.1-7-8.3-3.4-9.6 9.1-24.3 19.4-27.4l2.1-8.5z"/>
			<g id="Layer">
				<path id="Layer" class="s4" d="m130.8 162.5c2.3 8.5 4 17.2 5 25.9q0.5 4 0.8 7.9c0.3 3.2 0.5 6.3 0.7 9.3 0.2 3.7 0.2 8.2 0.2 12.5 0 10-0.4 19.7-0.4 19.7 8 2 31.1 0.6 43.8-0.3 1.6-12.8 1.7-25.3 1.1-36.4-0.5-9.2-1.5-17.4-2.6-23.9-1-5.7-2.1-10-2.9-12.5-0.9-3-3.5-5.2-6.6-5.5-1.5-0.2-3.3-0.4-5.2-0.5-0.7 0-1.4-0.1-2.1-0.1q-9 0.1-17.9 1.2c-1.1 0.2-2.2 0.3-3.3 0.5-5.7 0.9-10.6 2.2-10.6 2.2z"/>
				<path id="Layer" class="s15" d="m180.8 237.5c-12.6 0.9-35.7 2.3-43.7 0.3 0 0 0.4-9.7 0.4-19.7 0-4.3 0-8.8-0.2-12.5-0.2-3-0.4-6.1-0.7-9.3q-0.3-3.9-0.8-7.9-0.1-1.1-0.3-2.2-0.4-3.4-1-6.9 0 0 0 0l3.9-5.6 7.8-11.2c0 0 12.8 5.2 18.2-2.2 0 0 8.5 6.3 14.3 13.6q0.4 1.6 0.7 3.3c1.1 6.5 2.1 14.7 2.6 23.9 0.6 11.1 0.5 23.6-1.2 36.4z"/>
			</g>
			<path id="Layer" class="s7" d="m168.1 124.9c0 0 1.3 9-4.4 13.1-5.8 4.2-5.8-16-5.8-16z"/>
			<path id="Layer" class="s14" d="m144.7 159.8c3.9 3.5 13.2 2.2 13.2 2.2 0 0 5.9-1.6 4.7-3.5-3.5-0.5-5.2-2.1-5.8-4.2-0.4-1.2-0.5-2.6-0.4-3.9q0.1-1.1 0.3-2.2l-11.6-8.6c1.5 5.6 3.4 16.1-0.4 20.2z"/>
			<path id="Layer" class="s13" d="m147.8 145c0.4 7 6.2 8.9 8.9 9.3-0.4-1.2-0.4-2.6-0.3-3.9z"/>
			<path id="Layer" class="s14" d="m147 146.6c2.8 4 7.3 5.1 11.3 3.8 2.5-0.8 4.8-2.5 6.2-5q0.3-0.5 0.6-1.1c2.8-6.6 3.7-18.2-3.3-22.5-5-3.2-11.6-1.7-14.7 3.3-0.9 1.4-1.4 3-1.6 4.7-0.9 7.7-1.7 12.3 1.5 16.8z"/>
			<path id="Layer" class="s7" d="m156.8 133.9c-0.2 0.7 0.1 1.2 0.5 1.3 0.4 0.1 0.9-0.4 1-1 0.1-0.6-0.2-1.2-0.6-1.3-0.4 0-0.8 0.4-0.9 1z"/>
			<path id="Layer" class="s7" d="m163.8 135.1c-0.1 0.7 0.2 1.2 0.6 1.3 0.4 0.1 0.8-0.4 0.9-1 0.1-0.6-0.1-1.2-0.5-1.3-0.4 0-0.8 0.5-1 1z"/>
			<path id="Layer" class="s16" d="m161.6 135.1q0.6 3 2 5.8c-1 0.5-2.1 0.5-3.1 0.1z"/>
			<path id="Layer" class="s7" d="m155 131.3q0.2 0 0.4-0.1c0.6-0.7 1.6-1 2.5-0.8 0.2 0 0.4-0.1 0.5-0.3 0-0.2-0.1-0.4-0.3-0.5q0 0 0 0c-1.2-0.2-2.4 0.2-3.2 1-0.2 0.2-0.2 0.4-0.1 0.6q0 0 0 0 0.1 0 0.2 0.1z"/>
			<path id="Layer" class="s7" d="m159 144c-1.9 0-3.6-0.9-4.7-2.5 0-0.1 0-0.2 0.1-0.3 0.1 0 0.2 0 0.3 0.1q0 0 0 0c1 1.4 2.6 2.3 4.3 2.3 0.1 0 0.2 0.1 0.2 0.2q0 0 0 0c0 0.2-0.1 0.2-0.2 0.2q0 0 0 0z"/>
			<path id="Layer" class="s7" d="m167.3 133.2q0.1 0.1 0.2 0.1c0.2-0.1 0.3-0.3 0.3-0.5q0 0 0 0c-0.3-1.1-1.2-2.1-2.3-2.5-0.2-0.1-0.4 0.1-0.5 0.2v0.1c0 0.1 0.1 0.3 0.3 0.4 0.8 0.4 1.5 1.1 1.8 2q0 0.2 0.2 0.2z"/>
			<path id="Layer" class="s7" d="m156.9 117.4q-1.3-0.2-2.7-0.3c-2.7-0.2-5.5 0.2-7.8 1.5-5.3 3.2-4.4 11.3-3.7 16.6 0.9 7 3.7 10.2 3.7 10.2-1.7-3.4-1.2-9.9-0.1-10 1.1-0.2 1 1 1 1 2.4-1.5 4.6-5.7 3.8-8.7-0.6-2.3 2-4 4.2-2.9q0.3 0.1 0.6 0.3 0.5 0.2 1 0.5c0 0 0-8.2 0-8.2z"/>
			<path id="Layer" class="s14" d="m141.1 135.5c0.5 1.9 1.8 3.5 3.5 4.4 2.3 1.3 4-0.7 3.9-3.1-0.2-2.2-1.5-5.5-4.1-5.7-2.5-0.2-4 2.1-3.3 4.4z"/>
			<path id="Layer" class="s7" d="m160 124c-0.5 0.9 0.8 3.8-2.1 3.1-2.8-0.7-3 0.5-5.1 2.5-2 2-6.1-1-6.1-1l-4.5 0.6c0 0-3.3-3-1.3-4.6 2.1-1.6 2.5-3.8 3.8-6.5 1.3-2.7 6.9-6.1 12.8-2.1 0 0 3.2-1.1 4.6-0.3 1.4 0.8 2.5 2.9 2.5 2.9 0 0 1.6-1.8 3.2-0.1 1.6 1.7 0.3 7.7 1.7 9.2 1.4 1.5-1.7 3.4-1.7 3.4 0 0-2.4-0.6-2.4-2.4 0-3.2-0.5-4.3-2.1-4.9-0.9-0.3-1.6 0.5-1.6 0.5 0 0-0.9-1.7-1.7-0.3z"/>
			<path id="Layer" class="s13" d="m135.5 186.2q-0.4-3.4-1-6.9 0 0 0 0c0.4-0.6 3.2-5.3 3.4-8.6 0 0 0.4 1.2 0.5 3 0.3 3.2 0.2 8.3-2.9 12.5z"/>
			<path id="Layer" class="s4" d="m149.8 178.9l1 8.1c0.1 1.1 1.1 1.9 2.3 1.9l16.7-0.6c1.3-0.1 2.2-1.2 2.1-2.4l-0.6-8.1c-0.1-1.2-1.1-2.1-2.3-2.1l-17.1 0.8c-1.3 0-2.2 1.2-2.1 2.4z"/>
			<path id="Layer" class="s15" d="m157.9 179.5l7.1 2.3-6.7 3.4 1.8-2.9z"/>
			<path id="Layer" class="s7" d="m172.2 174.6l4.5-17.9c0.2-0.7 0.8-1.2 1.5-1.2h9.5c0.6 0 1 0.5 0.9 1.1l-4.4 18c-0.2 0.7-0.8 1.1-1.5 1.1h-9.6c-0.6 0-1-0.5-0.9-1.1z"/>
			<path id="Layer" class="s8" d="m181.3 162.5c-0.9 0-1.8 0.9-2.1 2-0.2 1.1 0.3 2 1.1 2 0.9 0 1.9-0.9 2.1-2 0.3-1.1-0.2-2-1.1-2z"/>
			<path id="Layer" class="s14" d="m206.4 192.4c0 0-11.3-18.3-14.4-21.2-3.1-2.8-14.9-4.8-15.4-4.9-0.4-0.1-2.9 10.4-1.8 11.3 1.2 1 11.6 2 12.3 1.7 0.6-0.3 1.8-0.7 1.8-0.7l10.1 19.8c0 0 5.8-0.4 7.4-6z"/>
		</g>
	</g>
</svg>