<svg width="430" height="430" viewBox="0 0 430 430" fill="none" xmlns="http://www.w3.org/2000/svg">
<mask id="mask0_33_6" style="mask-type:luminance" maskUnits="userSpaceOnUse" x="0" y="0" width="430" height="430">
<path d="M0 0H430V430H0V0Z" fill="white"/>
</mask>
<g mask="url(#mask0_33_6)">
<mask id="mask1_33_6" style="mask-type:luminance" maskUnits="userSpaceOnUse" x="0" y="0" width="430" height="430">
<path d="M0 0H430V430H0V0Z" fill="white"/>
</mask>
<g mask="url(#mask1_33_6)">
<path d="M359.945 229.956C379.937 209.964 389.979 183.742 389.979 157.562C389.979 131.34 379.937 105.118 359.945 85.1258C342.882 68.0458 321.295 58.2528 299.038 55.7498C269.138 52.3868 238.044 62.1798 215.119 85.1258L214.996 85.2478L214.87 85.1258C194.878 65.1338 168.656 55.0918 142.476 55.0918C116.254 55.0918 90.036 65.1338 70.044 85.1258C30.015 125.114 30.015 189.968 70.044 229.956L214.996 374.908L359.945 229.956Z" stroke="white" stroke-width="18" stroke-linecap="round" stroke-linejoin="round"/>
<path d="M186 110.013C176.343 104.576 166.397 101 157.348 101C136.517 101 119.754 106.769 103.864 123.728C91.8457 136.554 85.0666 150.18 83 164" stroke="#407BFF" stroke-width="18" stroke-linecap="round" stroke-linejoin="round"/>
<path d="M287.907 247.104C282.052 252.557 276.045 258.196 270.615 263.365C258.115 275.263 248.119 284.903 238.769 294.174C231.697 301.186 227.778 305.214 226.689 306.553" stroke="#407BFF" stroke-width="18" stroke-linecap="round" stroke-linejoin="round"/>
</g>
</g>
</svg>
