<svg width="426" height="370" viewBox="0 0 426 370" fill="none" xmlns="http://www.w3.org/2000/svg">
<path d="M258.254 8.7358L258.277 8.72563L258.3 8.71531C265.349 5.55157 273.624 6.8319 279.38 11.9981L279.386 12.0036L279.392 12.009L412.517 130.932L412.525 130.94C416.687 134.645 419 139.843 419 145.367C419 150.84 416.641 156.067 412.502 159.816C412.497 159.82 412.492 159.825 412.487 159.829L279.41 278.709C279.407 278.712 279.404 278.715 279.4 278.718C273.641 283.82 265.407 285.12 258.233 281.99C251.141 278.895 246.625 271.922 246.625 264.29V211.436V204.436H239.625H159.75C111.836 204.436 72.875 243.032 72.875 290.718C72.875 318.096 84.5924 334.307 93.5523 342.727L93.5788 342.752L93.6056 342.777C97.3977 346.267 99.5 350.236 99.5 353.731C99.5 358.758 95.3382 363 90.109 363C88.5708 363 87.51 362.724 86.7704 362.313L86.7364 362.294L86.7023 362.275C71.8383 354.228 7 314.26 7 224.649C7 148.291 69.3808 86.2988 146.438 86.2988H239.625H246.625V79.2988V26.444C246.625 18.8414 251.2 11.8408 258.254 8.7358Z" stroke="white" stroke-width="14"/>
<path d="M290 225.5L366 155" stroke="#407BFF" stroke-width="18" stroke-linecap="round"/>
<path d="M67 164.517C67 164.517 80.5 120.017 172.5 121.017" stroke="#407BFF" stroke-width="18" stroke-linecap="round"/>
</svg>
