<svg width="24" height="24" viewBox="0 0 24 24" fill="none" xmlns="http://www.w3.org/2000/svg">
<g clip-path="url(#clip0_34_10)">
<circle cx="12.5" cy="12.5" r="6.5" fill="#D9D9D9"/>
<path d="M22.5098 13.7596C22.139 13.2477 21.9393 12.6317 21.9393 11.9996C21.9393 11.3675 22.139 10.7515 22.5098 10.2396L23.2698 9.18962C23.3628 9.06141 23.4239 8.91296 23.4483 8.75649C23.4726 8.60002 23.4594 8.44001 23.4098 8.28962C23.3598 8.14082 23.2759 8.00561 23.1649 7.89459C23.0539 7.78356 22.9187 7.69972 22.7698 7.64962L21.5399 7.24962C20.9373 7.05526 20.4121 6.67447 20.04 6.16222C19.668 5.64996 19.4683 5.03274 19.4698 4.39962V3.09962C19.4697 2.94179 19.4323 2.78622 19.3605 2.64565C19.2887 2.50507 19.1847 2.38348 19.0569 2.29082C18.9291 2.19816 18.7813 2.13706 18.6253 2.11252C18.4694 2.08798 18.3099 2.1007 18.1598 2.14962L16.9198 2.54962C16.3179 2.74442 15.6697 2.7439 15.068 2.54813C14.4663 2.35236 13.942 1.97137 13.5698 1.45962L12.8098 0.409624C12.7128 0.287933 12.5896 0.18967 12.4494 0.122135C12.3091 0.0546011 12.1555 0.0195313 11.9998 0.0195312C11.8442 0.0195312 11.6906 0.0546011 11.5503 0.122135C11.4101 0.18967 11.2869 0.287933 11.1898 0.409624L10.4298 1.45962C10.0577 1.97137 9.53337 2.35236 8.93169 2.54813C8.33001 2.7439 7.68184 2.74442 7.07985 2.54962L5.83985 2.14962C5.68979 2.1007 5.53028 2.08798 5.37436 2.11252C5.21845 2.13706 5.07055 2.19816 4.94278 2.29082C4.81501 2.38348 4.71098 2.50507 4.63921 2.64565C4.56744 2.78622 4.52997 2.94179 4.52985 3.09962V4.39962C4.53138 5.03274 4.33171 5.64996 3.95965 6.16222C3.58759 6.67447 3.06239 7.05526 2.45985 7.24962L1.22985 7.64962C1.08104 7.69972 0.945837 7.78356 0.834811 7.89459C0.723785 8.00561 0.639946 8.14082 0.58985 8.28962C0.540261 8.44001 0.527095 8.60002 0.551434 8.75649C0.575774 8.91296 0.636923 9.06141 0.72985 9.18962L1.48985 10.2396C1.86069 10.7515 2.06036 11.3675 2.06036 11.9996C2.06036 12.6317 1.86069 13.2477 1.48985 13.7596L0.72985 14.8096C0.636923 14.9378 0.575774 15.0863 0.551434 15.2428C0.527095 15.3992 0.540261 15.5592 0.58985 15.7096C0.639946 15.8584 0.723785 15.9936 0.834811 16.1047C0.945837 16.2157 1.08104 16.2995 1.22985 16.3496L2.45985 16.7496C3.06239 16.944 3.58759 17.3248 3.95965 17.837C4.33171 18.3493 4.53138 18.9665 4.52985 19.5996V20.8996C4.52997 21.0575 4.56744 21.213 4.63921 21.3536C4.71098 21.4942 4.81501 21.6158 4.94278 21.7084C5.07055 21.8011 5.21845 21.8622 5.37436 21.8867C5.53028 21.9113 5.68979 21.8986 5.83985 21.8496L7.06985 21.4496C7.67312 21.2515 8.32375 21.2504 8.92772 21.4463C9.5317 21.6422 10.0577 22.0251 10.4298 22.5396L11.1898 23.5896C11.2832 23.7167 11.4052 23.8201 11.5459 23.8913C11.6866 23.9626 11.8421 23.9997 11.9998 23.9997C12.1576 23.9997 12.3131 23.9626 12.4538 23.8913C12.5945 23.8201 12.7165 23.7167 12.8098 23.5896L13.5698 22.5396C13.9426 22.0259 14.4687 21.6435 15.0724 21.4477C15.6762 21.2518 16.3265 21.2525 16.9298 21.4496L18.1598 21.8496C18.3099 21.8986 18.4694 21.9113 18.6253 21.8867C18.7813 21.8622 18.9291 21.8011 19.0569 21.7084C19.1847 21.6158 19.2887 21.4942 19.3605 21.3536C19.4323 21.213 19.4697 21.0575 19.4698 20.8996V19.5996C19.4683 18.9665 19.668 18.3493 20.04 17.837C20.4121 17.3248 20.9373 16.944 21.5399 16.7496L22.7698 16.3496C22.9187 16.2995 23.0539 16.2157 23.1649 16.1047C23.2759 15.9936 23.3598 15.8584 23.4098 15.7096C23.4594 15.5592 23.4726 15.3992 23.4483 15.2428C23.4239 15.0863 23.3628 14.9378 23.2698 14.8096L22.5098 13.7596ZM16.7098 10.7066L11.7098 15.7066C11.5223 15.8941 11.268 15.9994 11.0028 15.9994C10.7377 15.9994 10.4834 15.8941 10.2958 15.7066L7.29585 12.7066C7.20034 12.6144 7.12416 12.504 7.07175 12.382C7.01934 12.26 6.99175 12.1288 6.9906 11.996C6.98945 11.8632 7.01475 11.7316 7.06503 11.6087C7.11531 11.4858 7.18956 11.3741 7.28345 11.2802C7.37735 11.1863 7.489 11.1121 7.6119 11.0618C7.73479 11.0115 7.86647 10.9862 7.99925 10.9874C8.13203 10.9885 8.26325 11.0161 8.38525 11.0685C8.50726 11.1209 8.6176 11.1971 8.70985 11.2926L10.9998 13.5856L15.2928 9.29262C15.4815 9.11047 15.7341 9.00967 15.9963 9.01195C16.2584 9.01423 16.5093 9.1194 16.6947 9.30481C16.8801 9.49021 16.9852 9.74103 16.9875 10.0032C16.9898 10.2654 16.889 10.518 16.7069 10.7066H16.7098Z" fill="#194FE6"/>
</g>
<defs>
<clipPath id="clip0_34_10">
<rect width="24" height="24" fill="white"/>
</clipPath>
</defs>
</svg>
