<svg version="1.2" xmlns="http://www.w3.org/2000/svg" viewBox="0 0 500 500" width="500" height="500">
	<title>5928293_2953960-svg</title>
	<style>
		.s0 { fill: #407bff } 
		.s1 { opacity: .9;fill: #ffffff } 
		.s2 { fill: #f5f5f5 } 
		.s3 { opacity: .5;fill: #ffffff } 
		.s4 { fill: #fafafa } 
		.s5 { fill: #ffffff } 
		.s6 { fill: #ebebeb } 
		.s7 { fill: #ffb573 } 
		.s8 { fill: #263238 } 
		.s9 { fill: #ff5652 } 
		.s10 { fill: #000000 } 
		.s11 { opacity: .1;fill: #ffffff } 
		.s12 { opacity: .3;fill: #000000 } 
		.s13 { opacity: .4;fill: #000000 } 
		.s14 { opacity: .2;fill: #000000 } 
		.s15 { opacity: .3;fill: #ffffff } 
	</style>
	<g id="Background_Simple">
		<g id="Layer">
			<path id="Layer" class="s0" d="m240.5 127.1c48.1 5.4 69.2-36.3 116.9-30.9 42.5 4.9 71.8 35.2 61.9 76-8.8 36.3-50.8 47.7-65.7 81.6-15.9 36-28.1 74.8-75.9 87.3-93.9 24.6-139.5-90.9-145.9-157.2-2.4-25.5-6.7-86.3 26.5-94.2 33.5-7.9 52.7 34.1 82.2 37.4z"/>
			<path id="Layer" class="s1" d="m240.5 127.1c48.1 5.4 69.2-36.3 116.9-30.9 42.5 4.9 71.8 35.2 61.9 76-8.8 36.3-50.8 47.7-65.7 81.6-15.9 36-28.1 74.8-75.9 87.3-93.9 24.6-139.5-90.9-145.9-157.2-2.4-25.5-6.7-86.3 26.5-94.2 33.5-7.9 52.7 34.1 82.2 37.4z"/>
		</g>
	</g>
	<g id="Shadow_1_">
		<path id="_x3C_Path_x3E__130_" class="s2" d="m250 427.6c-107.2 0-193.9-5.1-193.9-11.4 0-6.2 86.7-11.3 193.9-11.3 107.2 0 193.9 5.1 193.9 11.3 0 6.3-86.7 11.4-193.9 11.4z"/>
	</g>
	<g id="Window_No_Data">
		<g id="Layer">
			<g id="Layer">
				<path id="Layer" class="s0" d="m103.1 202.4h1l1.3 18.4-1 0.1z"/>
				<path id="Layer" class="s0" d="m105.1 230.4l1-0.1 0.5 7h-1z"/>
				<path id="Layer" class="s0" d="m337.7 315.2h-214.1c-4.9 0-9.1-4-9.5-8.8l-10.5-146.2c-0.4-4.8 3.3-8.8 8.2-8.8h214.1c4.9 0 9.1 4 9.5 8.8l10.5 146.2c0.3 4.8-3.3 8.8-8.2 8.8z"/>
				<g id="Layer">
					<g id="Layer">
						<path id="Layer" class="s0" d="m338.5 315.2h-214.1c-4.9 0-9.1-4-9.5-8.8l-10.5-146.2c-0.3-4.8 3.3-8.8 8.2-8.8h214.1c4.9 0 9.1 4 9.5 8.8l10.5 146.2c0.4 4.8-3.3 8.8-8.2 8.8z"/>
						<path id="Layer" class="s3" d="m338.5 315.2h-214.1c-4.9 0-9.1-4-9.5-8.8l-10.5-146.2c-0.3-4.8 3.3-8.8 8.2-8.8h214.1c4.9 0 9.1 4 9.5 8.8l10.5 146.2c0.4 4.8-3.3 8.8-8.2 8.8z"/>
					</g>
					<path id="Layer" class="s0" d="m327.1 155.8h-214.2q-0.4 0-0.7 0c-5.5 0.5-4.4 8.8 1.2 8.8h214.5c5.5 0 5.4-8.3-0.1-8.8q-0.4 0-0.7 0z"/>
					<path id="Layer" class="s4" d="m118.5 160.2c0.1 1.1-0.8 2-1.9 2-1.1 0-2.1-0.9-2.2-2 0-1.1 0.8-2 1.9-2 1.1 0 2.1 0.9 2.2 2z"/>
					<path id="Layer" class="s4" d="m125.3 160.2c0.1 1.1-0.7 2-1.8 2-1.1 0-2.1-0.9-2.2-2-0.1-1.1 0.8-2 1.9-2 1.1 0 2.1 0.9 2.1 2z"/>
					<path id="Layer" class="s4" d="m132.2 160.2c0.1 1.1-0.7 2-1.9 2-1.1 0-2-0.9-2.1-2-0.1-1.1 0.7-2 1.8-2 1.2 0 2.1 0.9 2.2 2z"/>
				</g>
				<path id="Layer" class="s5" d="m332.9 300.6h-204.9c-1.8 0-3.3-1.5-3.5-3.2l-8.6-120.2c-0.2-1.8 1.2-3.2 2.9-3.2h204.9c1.8 0 3.3 1.4 3.5 3.2l8.6 120.2c0.1 1.7-1.2 3.2-2.9 3.2z"/>
			</g>
			<g id="Layer">
				<g id="Layer">
					<g id="Layer">
						<g id="Layer">
							<path id="Layer" class="s5" d="m246.5 254.8l-3.3-46.3-10.1-6.1h-27.8l3.8 52.4z"/>
							<path id="Layer" fill-rule="evenodd" class="s0" d="m246.5 255.3h-37.4c-0.3 0-0.5-0.2-0.5-0.5l-3.8-52.4q0-0.2 0.1-0.3 0.2-0.2 0.4-0.2h27.8q0.1 0 0.2 0.1l10.1 6.1q0.3 0.1 0.3 0.3l3.3 46.4q0 0.2-0.1 0.3-0.2 0.2-0.4 0.2zm-37-1h36.5l-3.3-45.5-9.7-5.9h-27.2z"/>
						</g>
						<g id="Layer">
							<path id="Layer" class="s6" d="m243.2 208.5l-10.1-6.1 3.7 8.1z"/>
							<path id="Layer" fill-rule="evenodd" class="s0" d="m236.8 210.9c-0.2 0-0.4-0.1-0.4-0.2l-3.8-8.1c0-0.2 0-0.4 0.2-0.6 0.1-0.1 0.4-0.1 0.5 0l10.1 6.1c0.2 0.1 0.3 0.2 0.3 0.4 0 0.2-0.2 0.4-0.4 0.4l-6.4 2q0 0-0.1 0zm-2.6-7.3l2.9 6.3 4.9-1.6z"/>
						</g>
					</g>
					<g id="Layer">
						<path id="Layer" class="s0" d="m221 226c0.1 1.2-0.8 2.1-2 2.1-1.2 0-2.2-0.9-2.3-2.1 0-1.2 0.8-2.1 2-2.1 1.2 0 2.2 0.9 2.3 2.1z"/>
						<path id="Layer" class="s0" d="m234.7 226c0.1 1.2-0.8 2.1-2 2.1-1.1 0-2.1-0.9-2.2-2.1-0.1-1.2 0.8-2.1 1.9-2.1 1.2 0 2.2 0.9 2.3 2.1z"/>
						<path id="Layer" class="s0" d="m238.6 239.7c-0.3 0-0.5-0.2-0.5-0.4-0.2-3.4-5.6-6.2-11.9-6.2-4.2 0-7.9 1.3-9.8 3.3q-1.3 1.3-1.1 2.8c0 0.3-0.2 0.5-0.5 0.5-0.3 0.1-0.5-0.1-0.5-0.4-0.1-1.3 0.4-2.5 1.4-3.6 2-2.2 6.1-3.6 10.5-3.6 6.9 0 12.6 3.1 12.9 7.1 0 0.3-0.2 0.5-0.5 0.5q0 0 0 0z"/>
					</g>
					<path id="Layer" class="s0" d="m213.2 221.7q-0.2 0-0.4-0.1c-0.2-0.2-0.2-0.5 0-0.7l2.1-2.3c0.2-0.2 0.5-0.2 0.7 0 0.2 0.2 0.2 0.5 0 0.7l-2.1 2.3q-0.1 0.1-0.3 0.1z"/>
					<path id="Layer" class="s0" d="m237.6 221.7q-0.2 0-0.3-0.1l-2.5-2.3c-0.2-0.2-0.2-0.5 0-0.7 0.2-0.2 0.5-0.2 0.7 0l2.4 2.3c0.2 0.2 0.2 0.5 0 0.7q-0.1 0.1-0.3 0.1z"/>
				</g>
				<g id="Layer">
					<path id="Layer" class="s0" d="m202.3 265.2h2.2l3.3 4.3-0.3-4.3h2.2l0.6 7.8h-2.3l-3.2-4.3 0.3 4.3h-2.3z"/>
					<path id="Layer" fill-rule="evenodd" class="s0" d="m211.3 269.1q-0.1-1.9 0.9-3 1-1.1 2.9-1.1 1.9 0 3.1 1.1 1.1 1 1.2 2.9 0.1 1.4-0.3 2.3-0.4 0.8-1.2 1.3-0.8 0.5-2.1 0.5-1.4 0-2.3-0.4-0.9-0.4-1.5-1.3-0.6-1-0.7-2.3zm2.5 0q0 1.2 0.5 1.7 0.5 0.5 1.3 0.5 0.7 0 1.1-0.5 0.4-0.5 0.3-1.8-0.1-1.1-0.5-1.6-0.5-0.5-1.3-0.5-0.7 0-1.1 0.5-0.4 0.5-0.3 1.7z"/>
					<path id="Layer" fill-rule="evenodd" class="s0" d="m224.2 265.2h3.5q1.1 0 1.8 0.2 0.7 0.3 1.1 0.9 0.5 0.5 0.7 1.2 0.3 0.7 0.3 1.5 0.1 1.3-0.1 2-0.2 0.7-0.7 1.1-0.5 0.5-1.1 0.7-0.7 0.2-1.4 0.2h-3.6zm2.9 6h0.6q0.7 0 1-0.1 0.3-0.2 0.5-0.6 0.1-0.4 0.1-1.4-0.1-1.2-0.6-1.7-0.4-0.4-1.3-0.4c0 0-0.6 0-0.6 0z"/>
					<path id="Layer" fill-rule="evenodd" class="s0" d="m237.4 271.7h-2.7l-0.3 1.3h-2.5l2.4-7.8h2.7l3.5 7.8h-2.6zm-0.6-1.7l-1.1-2.8-0.6 2.8z"/>
					<path id="Layer" class="s0" d="m239.4 265.2h7.3l0.2 1.9h-2.5l0.4 5.9h-2.4l-0.4-5.9h-2.5z"/>
					<path id="Layer" fill-rule="evenodd" class="s0" d="m252.4 271.7h-2.8l-0.3 1.3h-2.4l2.3-7.8h2.7l3.5 7.8h-2.6zm-0.6-1.7l-1-2.8-0.7 2.8z"/>
				</g>
			</g>
		</g>
	</g>
	<g id="Character_1_">
		<g id="Layer">
			<path id="Layer" class="s7" d="m353.7 173.1c0.9-0.5 1.9-1 2.9-1.6q1.5-0.8 3-1.7c2-1.2 3.9-2.4 5.8-3.7 3.8-2.6 7.3-5.5 10.5-8.7 0.5-0.4 0.8-0.8 1.2-1.2l0.6-0.6 0.3-0.3 0.1-0.2q0 0 0 0v0.1c-0.2 0.2-0.1 0.2 0-0.1 0.1-0.2 0.1-0.7 0.1-1.1 0.1-1.8-0.2-4.1-0.7-6.3-0.9-4.5-2.2-9.1-3.6-13.6l3.9-1.7c2.5 4.3 4.5 8.8 6.1 13.6 0.8 2.4 1.6 4.9 1.8 7.9 0 0.7 0 1.5-0.1 2.5-0.2 0.9-0.4 2-1.2 3.3l-0.2 0.2-0.1 0.2-0.2 0.1-0.3 0.4-0.6 0.8c-0.4 0.5-0.8 1-1.3 1.4-3.4 3.9-7.3 7.3-11.4 10.2-2 1.5-4.1 2.9-6.2 4.2q-1.7 1-3.3 1.9c-1.1 0.6-2.2 1.1-3.5 1.7z"/>
			<path id="Layer" fill-rule="evenodd" class="s0" d="m343.2 407.7q-0.4-0.3-0.3-1c0-0.3 0.2-0.5 0.4-0.6 0.9-0.4 3.5 1.2 3.8 1.4q0.1 0.1 0.1 0.2-0.1 0.1-0.2 0.2c-0.6 0.1-1.4 0.3-2.2 0.3-0.7 0-1.2-0.1-1.6-0.5zm0.2-1.2c0 0-0.1 0.1-0.1 0.2q-0.1 0.5 0.2 0.7c0.4 0.4 1.5 0.5 2.9 0.2-1-0.6-2.5-1.3-3-1.1z"/>
			<path id="Layer" fill-rule="evenodd" class="s0" d="m346.9 407.9c-0.8-0.5-2.4-2.3-2.2-3.2 0.1-0.2 0.2-0.5 0.7-0.6q0.5-0.1 0.8 0.3c0.9 0.8 1 3.2 1 3.3q0 0.1-0.1 0.2-0.1 0-0.1 0-0.1 0-0.1 0zm-1.5-3.4c-0.2 0-0.3 0.1-0.3 0.2-0.1 0.6 0.9 2 1.7 2.6-0.1-0.8-0.3-2.2-0.8-2.6q-0.2-0.2-0.5-0.2 0 0-0.1 0z"/>
			<path id="Layer" class="s7" d="m346.2 148.1c-1 4.9-3 15 0.5 18.3 0 0-1.4 5.1-10.6 5.1-10.2 0-4.9-5.1-4.9-5.1 5.6-1.3 5.4-5.4 4.5-9.3z"/>
			<path id="Layer" class="s8" d="m329.3 168.4c-1.6 0.2-0.3-3.9 0.4-4.3 1.5-1 20.8-2.4 20.7-0.1-0.1 1.1-0.5 3-1.4 3.7-0.8 0.7-5.8-1.4-19.7 0.7z"/>
			<path id="Layer" class="s8" d="m332.4 167c-1.2 0.5-1.1-3.7-0.7-4.2 1-1.2 16.7-5.2 17.2-2.9 0.1 1 0.2 2.9-0.3 3.7-0.6 0.8-5.2-0.5-16.2 3.4z"/>
			<path id="Layer" class="s8" d="m326.6 139.1q-0.2 0-0.3-0.1c-1.1-1.4-2.6-1.3-2.6-1.3-0.2 0.1-0.4-0.1-0.4-0.3-0.1-0.2 0.1-0.4 0.3-0.5 0.1 0 1.9-0.1 3.3 1.6 0.1 0.1 0.1 0.4-0.1 0.5q-0.1 0.1-0.2 0.1z"/>
			<path id="Layer" class="s9" d="m324.7 144c0 0-0.9 3-2 4.5 1 0.8 2.4 0.2 2.4 0.2z"/>
			<path id="Layer" class="s8" d="m325.2 142.8c0 0.7-0.3 1.2-0.7 1.3-0.5 0-0.9-0.5-0.9-1.2-0.1-0.6 0.2-1.2 0.6-1.3 0.5 0 0.9 0.5 1 1.2z"/>
			<path id="Layer" class="s8" d="m324.4 141.7l-1.6-0.3c0 0 0.9 1.1 1.6 0.3z"/>
			<path id="Layer" class="s7" d="m356.7 407.7h-8.4l0.7-19.4h8.4z"/>
			<path id="Layer" class="s8" d="m347.7 406.7h9.4c0.3 0 0.6 0.3 0.6 0.6l1.1 7.4c0.1 0.8-0.5 1.5-1.3 1.5-3.3 0-4.9-0.2-9-0.2-2.6 0-6.3 0.2-9.8 0.2-3.5 0-3.7-3.4-2.3-3.8 6.6-1.4 7.6-3.3 9.9-5.2 0.4-0.3 0.9-0.5 1.4-0.5z"/>
			<g id="Layer" style="opacity: .2">
				<path id="Layer" class="s10" d="m357.4 388.3h-8.4l-0.4 10h8.4z"/>
			</g>
			<path id="Layer" class="s7" d="m323.4 178c-5.2-2-10.2-4.2-15.1-6.7-4.9-2.5-9.7-5.2-14.4-8.8-1.1-0.9-2.3-1.9-3.4-3.1-0.3-0.3-0.6-0.5-0.8-0.9-0.3-0.3-0.5-0.5-0.9-1.1-0.7-1-1.2-2.3-1.4-3.6-0.1-1.3 0.2-2.6 0.5-3.6 0.4-1.1 0.9-1.9 1.4-2.6 1.1-1.5 2.3-2.6 3.4-3.6 2.4-1.9 4.9-3.3 7.3-4.6q1.9-1 3.8-1.8c1.3-0.6 2.6-1.1 3.9-1.6l1.8 3.9c-4.4 2.7-8.9 5.8-12.2 9.1-0.8 0.9-1.5 1.8-2 2.5-0.4 0.8-0.4 1.4-0.3 1.4 0 0 0-0.1 0.1 0.1l0.4 0.4c0.1 0.2 0.4 0.4 0.5 0.5 0.8 0.8 1.8 1.5 2.7 2.2 2 1.4 4.2 2.7 6.5 4q3.4 1.9 6.9 3.6c4.7 2.2 9.6 4.4 14.4 6.4z"/>
			<path id="Layer" class="s7" d="m312 137.2l1.4-3-6.3-2.2c0 0-2 5.9 0.3 8.6 2-0.3 3.7-1.6 4.6-3.4z"/>
			<path id="Layer" class="s7" d="m313.4 127.7l-5.1-1.5-1.2 5.8 6.3 2.2z"/>
			<path id="Layer" class="s7" d="m378.4 134.4l0.7-7-6.5 1.5c0 0-0.1 6.6 3.3 7.7z"/>
			<path id="Layer" class="s7" d="m376 122.5l-4.3 2 0.9 4.4 6.5-1.5z"/>
			<path id="Layer" class="s7" d="m347.5 138.3c0.3 8.3 0.7 11.8-3.1 16.4-5.6 7-15.9 5.6-18.7-2.5-2.5-7.2-2.6-19.6 5.2-23.7 7.6-4 16.3 1.4 16.6 9.8z"/>
			<g id="Layer">
				<path id="Layer" class="s8" d="m343.9 154.7c8.2-3.5 13.5-10.9 11.3-22.6-2.2-11.1-9.7-12.2-12.8-9.9-3.1 2.3-10.8-1.1-15.5 2.8-8 6.8-0.4 14 3.6 18.4 2.3 4.8 5.4 14.8 13.4 11.3z"/>
				<path id="Layer" class="s0" d="m340.5 130.1c2.8 4 8.1 5.1 11.8 2.6 3.8-2.6 4.6-8 1.9-12-2.8-4-8.1-5.1-11.8-2.5-3.8 2.6-4.6 8-1.9 11.9z"/>
				<path id="Layer" class="s8" d="m342.7 123c-1.2-6.7 5.1-11.9 13.6-9.4 8.5 2.5 4 10 2.2 16-1.7 6 2.9 11.8 4.8 7.2 1.9-4.6-1.3-6-1.3-6 0 0 9 2.3 0.6 12.5-8.3 10.1-15.9-1.1-13.9-7.7 1.7-5.3-4.9-6.3-6-12.6z"/>
				<path id="Layer" class="s8" d="m334.2 125.5c-3.9-2-10.4-3.6-14.2 2.7-1.7 2.9-1 6.9-1 6.9l11.3 0.8z"/>
				<path id="Layer" class="s8" d="m317.6 133.2q0 0 0 0c-0.1 0-0.2-0.2-0.2-0.3 0-0.2 0.2-4.2 2.7-6.7 5.8-6.1 12.7-1 14.7 0.7 0.1 0 0.1 0.2 0 0.3-0.1 0.1-0.2 0.1-0.3 0-1.9-1.6-8.5-6.4-14.1-0.7-2.3 2.4-2.5 6.4-2.5 6.4 0 0.2-0.2 0.3-0.3 0.3z"/>
			</g>
			<path id="Layer" class="s7" d="m331.9 143c-0.1 1.7-0.8 3.2-1.7 4.3-1.4 1.6-3 0.8-3.3-1-0.4-1.6 0-4.4 1.7-5.3 1.7-1 3.3 0.2 3.3 2z"/>
			<g id="Layer">
				<path id="Layer" class="s8" d="m330.1 219.1c0 0 0.5 58.2 5.5 90.6 4.1 26.1 11.6 86.7 11.6 86.7h11.5c0 0 1.1-58.5-1-84.4-5.2-65.4 8.3-77.7-2.6-92.9z"/>
				<path id="Layer" class="s11" d="m330.1 219.1c0 0 0.5 58.2 5.5 90.6 4.1 26.1 11.6 86.7 11.6 86.7h11.5c0 0 1.1-58.5-1-84.4-5.2-65.4 8.3-77.7-2.6-92.9z"/>
			</g>
			<path id="Layer" class="s12" d="m336.1 245.5c4 17.6 0.8 45.2-1.4 57.4-2.3-18.5-3.5-42.5-4.1-60 2.1-3.4 4-3.6 5.5 2.6z"/>
			<path id="Layer" class="s0" d="m345.7 396.6h14.5l0.8-5.1-15.4-0.5z"/>
			<g id="Layer">
				<path id="Layer" class="s0" d="m349.8 170c1.4-2.7 8.8-4.4 12.8-4.4l3 13.4c0 0-8 11.9-11.4 10.6-3.9-1.5-7.3-13.7-4.4-19.6z"/>
				<path id="Layer" class="s13" d="m349.8 170c1.4-2.7 8.8-4.4 12.8-4.4l3 13.4c0 0-8 11.9-11.4 10.6-3.9-1.5-7.3-13.7-4.4-19.6z"/>
			</g>
			<path id="Layer" fill-rule="evenodd" class="s0" d="m341.3 393.3c-0.9 1.1-2.7 2.7-3.9 2.6q-0.5 0-0.8-0.6-0.2-0.3-0.1-0.6c0.5-1 4.2-1.6 4.7-1.7q0.1 0 0.2 0.1 0 0.1 0 0.2-0.1 0-0.1 0zm-4.4 1.6q-0.1 0.1 0 0.2 0.2 0.4 0.6 0.4c0.6 0.1 1.8-0.7 3.1-2-1.4 0.3-3.3 0.8-3.7 1.4q0 0 0 0z"/>
			<path id="Layer" fill-rule="evenodd" class="s0" d="m341.2 393.4c-1 0.2-3.7-0.1-4.1-0.9-0.1-0.2-0.2-0.6 0.2-0.9q0.5-0.4 1.1-0.4c1.4 0.1 2.9 1.8 2.9 1.9q0.1 0.1 0.1 0.2 0 0 0 0-0.1 0.1-0.2 0.1zm-3.8-1.1c0.3 0.5 2.2 0.9 3.4 0.8-0.5-0.5-1.5-1.4-2.4-1.5q-0.5 0-0.8 0.3-0.1 0.1-0.2 0.2c0 0.1 0 0.2 0 0.2z"/>
			<path id="Layer" class="s7" d="m350.1 389.8l-7.7 3.4-3.4-7.1-4.5-9.3-0.5-1.1 7.7-3.4 0.6 1.2 4.3 9z"/>
			<path id="Layer" class="s14" d="m346.6 382.5l-7.6 3.6-4.5-9.3 7.8-3.3z"/>
			<g id="Layer">
				<path id="Layer" class="s8" d="m321.1 219.1c0 0-24.5 60.9-17.9 89.5 6 25.9 32.5 74.9 32.5 74.9l10.3-5.1c0 0-16.4-59.2-18.2-72.1-3.4-25 18.8-60.3 18.8-87.2z"/>
				<path id="Layer" class="s11" d="m321.1 219.1c0 0-24.5 60.9-17.9 89.5 6 25.9 32.5 74.9 32.5 74.9l10.3-5.1c0 0-16.4-59.2-18.2-72.1-3.4-25 18.8-60.3 18.8-87.2z"/>
			</g>
			<path id="Layer" class="s8" d="m341.1 392.1l7.6-5.5c0.2-0.2 0.6-0.2 0.8 0l5.3 5.4c0.5 0.6 0.4 1.6-0.2 2-2.7 1.9-4.1 2.7-7.4 5.1-2.1 1.5-6.2 4.8-9 6.9-2.8 2-5.1-0.6-4.1-1.8 4.5-5 5.4-8.1 6.1-10.9 0.2-0.5 0.4-0.9 0.9-1.2z"/>
			<path id="Layer" class="s0" d="m335.1 385.7l13.2-6.1-1.7-5.3-14.2 6.4z"/>
			<g id="Layer">
				<path id="Layer" class="s0" d="m327.6 169.4c-1.1-2.9-10.7-6-15.5-7.1l-2.1 15.8c0 0 7.8 11.2 11.3 10.3 4-1.1 8.6-13 6.3-19z"/>
				<path id="Layer" class="s13" d="m327.6 169.4c-1.1-2.9-10.7-6-15.5-7.1l-2.1 15.8c0 0 7.8 11.2 11.3 10.3 4-1.1 8.6-13 6.3-19z"/>
			</g>
			<g id="Layer">
				<path id="Layer" class="s0" d="m317.1 168.6c0 0-4 1.4 4 50.5 13.5 0 27.4 0 34 0-0.6-13.8-0.6-22.4 6-50.8 0 0-7.1-1.5-14.4-1.9-5.8-0.3-10.4-0.4-15.5 0-6.6 0.6-14.1 2.2-14.1 2.2z"/>
				<path id="Layer" class="s13" d="m317.1 168.6c0 0-4 1.4 4 50.5 13.5 0 27.4 0 34 0-0.6-13.8-0.6-22.4 6-50.8 0 0-7.1-1.5-14.4-1.9-5.8-0.3-10.4-0.4-15.5 0-6.6 0.6-14.1 2.2-14.1 2.2z"/>
			</g>
			<g id="Layer">
				<path id="Layer" class="s0" d="m355.6 217.1l1.5 3.1c0.2 0.2-0.1 0.4-0.5 0.4h-35.7c-0.3 0-0.6-0.1-0.6-0.3l-0.3-3c0-0.3 0.3-0.4 0.6-0.4h34.4c0.3 0 0.5 0.1 0.6 0.2z"/>
				<path id="Layer" class="s15" d="m355.6 217.1l1.5 3.1c0.2 0.2-0.1 0.4-0.5 0.4h-35.7c-0.3 0-0.6-0.1-0.6-0.3l-0.3-3c0-0.3 0.3-0.4 0.6-0.4h34.4c0.3 0 0.5 0.1 0.6 0.2z"/>
			</g>
			<path id="Layer" class="s8" d="m351 221h0.9c0.2 0 0.3-0.1 0.3-0.2l-0.4-4c0-0.1-0.2-0.2-0.4-0.2h-0.9c-0.2 0-0.3 0.1-0.3 0.2l0.4 4c0 0.1 0.2 0.2 0.4 0.2z"/>
			<path id="Layer" class="s8" d="m328.6 221h0.9c0.2 0 0.4-0.1 0.3-0.2l-0.4-4c0-0.1-0.2-0.2-0.3-0.2h-1c-0.2 0-0.3 0.1-0.3 0.2l0.5 4c0 0.1 0.1 0.2 0.3 0.2z"/>
		</g>
	</g>
</svg>