<svg width="388" height="339" viewBox="0 0 388 339" fill="none" xmlns="http://www.w3.org/2000/svg">
<path d="M184.4 38.3874C232.5 43.7874 253.6 2.08739 301.3 7.48739C343.8 12.3874 373.1 42.6874 363.2 83.4874C354.4 119.787 312.4 131.187 297.5 165.087C281.6 201.087 269.4 239.887 221.6 252.387C127.7 276.987 82.1 161.487 75.7 95.1874C73.3 69.6874 69 8.88739 102.2 0.987387C135.7 -6.91261 154.9 35.0874 184.4 38.3874Z" fill="#407BFF"/>
<path opacity="0.9" d="M184.4 38.3874C232.5 43.7874 253.6 2.08739 301.3 7.48739C343.8 12.3874 373.1 42.6874 363.2 83.4874C354.4 119.787 312.4 131.187 297.5 165.087C281.6 201.087 269.4 239.887 221.6 252.387C127.7 276.987 82.1 161.487 75.7 95.1874C73.3 69.6874 69 8.88739 102.2 0.987387C135.7 -6.91261 154.9 35.0874 184.4 38.3874Z" fill="#34385B"/>
<path d="M193.9 338.888C86.7 338.888 0 333.788 0 327.488C0 321.288 86.7 316.188 193.9 316.188C301.1 316.188 387.8 321.288 387.8 327.488C387.8 333.788 301.1 338.888 193.9 338.888Z" fill="#252841"/>
<path d="M47 113.688H48L49.3 132.088L48.3 132.188L47 113.688Z" fill="#0552FF"/>
<path d="M49 141.688L50 141.588L50.5 148.588H49.5L49 141.688Z" fill="#0552FF"/>
<path d="M281.6 226.488H67.5C62.6 226.488 58.4 222.488 58 217.688L47.5 71.4875C47.1 66.6875 50.8 62.6875 55.7 62.6875H269.8C274.7 62.6875 278.9 66.6875 279.3 71.4875L289.8 217.688C290.1 222.488 286.5 226.488 281.6 226.488Z" fill="#0552FF"/>
<path d="M282.4 226.488H68.3C63.4 226.488 59.2 222.488 58.8 217.688L48.3 71.4875C48 66.6875 51.6 62.6875 56.5 62.6875H270.6C275.5 62.6875 279.7 66.6875 280.1 71.4875L290.6 217.688C291 222.488 287.3 226.488 282.4 226.488Z" fill="#0552FF"/>
<path opacity="0.5" d="M282.4 226.488H68.3C63.4 226.488 59.2 222.488 58.8 217.688L48.3 71.4875C48 66.6875 51.6 62.6875 56.5 62.6875H270.6C275.5 62.6875 279.7 66.6875 280.1 71.4875L290.6 217.688C291 222.488 287.3 226.488 282.4 226.488Z" fill="white"/>
<path d="M271 67.0879H56.8C56.5333 67.0879 56.3 67.0879 56.1 67.0879C50.6 67.5879 51.7 75.8879 57.3 75.8879H271.8C277.3 75.8879 277.2 67.5879 271.7 67.0879C271.433 67.0879 271.2 67.0879 271 67.0879Z" fill="#0552FF"/>
<path d="M62.4 71.4873C62.5 72.5873 61.6 73.4873 60.5 73.4873C59.4 73.4873 58.4 72.5873 58.3 71.4873C58.3 70.3873 59.1 69.4873 60.2 69.4873C61.3 69.4873 62.3 70.3873 62.4 71.4873Z" fill="#FAFAFA"/>
<path d="M69.2 71.4873C69.3 72.5873 68.5 73.4873 67.4 73.4873C66.3 73.4873 65.3 72.5873 65.2 71.4873C65.1 70.3873 66 69.4873 67.1 69.4873C68.2 69.4873 69.2 70.3873 69.2 71.4873Z" fill="#FAFAFA"/>
<path d="M76.1 71.4873C76.2 72.5873 75.4 73.4873 74.2 73.4873C73.1 73.4873 72.2 72.5873 72.1 71.4873C72 70.3873 72.8 69.4873 73.9 69.4873C75.1 69.4873 76 70.3873 76.1 71.4873Z" fill="#FAFAFA"/>
<path d="M276.8 211.887H71.9C70.1 211.887 68.6 210.387 68.4 208.687L59.8 88.4871C59.6 86.6871 61 85.2871 62.7 85.2871H267.6C269.4 85.2871 270.9 86.6871 271.1 88.4871L279.7 208.687C279.8 210.387 278.5 211.887 276.8 211.887Z" fill="white"/>
<path d="M190.4 166.088L187.1 119.788L177 113.688H149.2L153 166.088H190.4Z" fill="white"/>
<path fill-rule="evenodd" clip-rule="evenodd" d="M190.4 166.588H153C152.7 166.588 152.5 166.388 152.5 166.088L148.7 113.688C148.7 113.554 148.733 113.454 148.8 113.388C148.933 113.254 149.067 113.188 149.2 113.188H177C177.067 113.188 177.133 113.221 177.2 113.288L187.3 119.388C187.5 119.454 187.6 119.554 187.6 119.688L190.9 166.088C190.9 166.221 190.867 166.321 190.8 166.388C190.667 166.521 190.533 166.588 190.4 166.588ZM153.4 165.588H189.9L186.6 120.088L176.9 114.188H149.7L153.4 165.588Z" fill="#0552FF"/>
<path d="M187.1 119.788L177 113.688L180.7 121.788L187.1 119.788Z" fill="#EBEBEB"/>
<path fill-rule="evenodd" clip-rule="evenodd" d="M180.7 122.188C180.5 122.188 180.3 122.088 180.3 121.988L176.5 113.888C176.5 113.688 176.5 113.488 176.7 113.288C176.8 113.188 177.1 113.188 177.2 113.288L187.3 119.388C187.5 119.488 187.6 119.588 187.6 119.788C187.6 119.988 187.4 120.188 187.2 120.188L180.8 122.188C180.8 122.188 180.767 122.188 180.7 122.188ZM178.1 114.888L181 121.188L185.9 119.588L178.1 114.888Z" fill="#0552FF"/>
<path d="M164.9 137.288C165 138.488 164.1 139.388 162.9 139.388C161.7 139.388 160.7 138.488 160.6 137.288C160.6 136.088 161.4 135.188 162.6 135.188C163.8 135.188 164.8 136.088 164.9 137.288Z" fill="#0552FF"/>
<path d="M178.6 137.288C178.7 138.488 177.8 139.388 176.6 139.388C175.5 139.388 174.5 138.488 174.4 137.288C174.3 136.088 175.2 135.188 176.3 135.188C177.5 135.188 178.5 136.088 178.6 137.288Z" fill="#0552FF"/>
<path d="M182.5 150.988C182.2 150.988 182 150.788 182 150.588C181.8 147.188 176.4 144.388 170.1 144.388C165.9 144.388 162.2 145.688 160.3 147.688C159.433 148.554 159.067 149.488 159.2 150.488C159.2 150.788 159 150.988 158.7 150.988C158.4 151.088 158.2 150.888 158.2 150.588C158.1 149.288 158.6 148.088 159.6 146.988C161.6 144.788 165.7 143.388 170.1 143.388C177 143.388 182.7 146.488 183 150.488C183 150.788 182.8 150.988 182.5 150.988Z" fill="#0552FF"/>
<path d="M157.1 132.987C156.967 132.987 156.833 132.954 156.7 132.887C156.5 132.687 156.5 132.387 156.7 132.187L158.8 129.887C159 129.687 159.3 129.687 159.5 129.887C159.7 130.087 159.7 130.387 159.5 130.587L157.4 132.887C157.333 132.954 157.233 132.987 157.1 132.987Z" fill="#0552FF"/>
<path d="M181.5 132.987C181.367 132.987 181.267 132.954 181.2 132.887L178.7 130.587C178.5 130.387 178.5 130.087 178.7 129.887C178.9 129.687 179.2 129.687 179.4 129.887L181.8 132.187C182 132.387 182 132.687 181.8 132.887C181.733 132.954 181.633 132.987 181.5 132.987Z" fill="#0552FF"/>
<path d="M146.2 176.487H148.4L151.7 180.787L151.4 176.487H153.6L154.2 184.287H151.9L148.7 179.987L149 184.287H146.7L146.2 176.487Z" fill="#0552FF"/>
<path fill-rule="evenodd" clip-rule="evenodd" d="M155.2 180.387C155.133 179.12 155.433 178.12 156.1 177.387C156.767 176.654 157.733 176.287 159 176.287C160.267 176.287 161.3 176.654 162.1 177.387C162.833 178.054 163.233 179.02 163.3 180.287C163.367 181.22 163.267 181.987 163 182.587C162.733 183.12 162.333 183.554 161.8 183.887C161.267 184.22 160.567 184.387 159.7 184.387C158.767 184.387 158 184.254 157.4 183.987C156.8 183.72 156.3 183.287 155.9 182.687C155.5 182.02 155.267 181.254 155.2 180.387ZM157.7 180.387C157.7 181.187 157.867 181.754 158.2 182.087C158.533 182.42 158.967 182.587 159.5 182.587C159.967 182.587 160.333 182.42 160.6 182.087C160.867 181.754 160.967 181.154 160.9 180.287C160.833 179.554 160.667 179.02 160.4 178.687C160.067 178.354 159.633 178.187 159.1 178.187C158.633 178.187 158.267 178.354 158 178.687C157.733 179.02 157.633 179.587 157.7 180.387Z" fill="#0552FF"/>
<path fill-rule="evenodd" clip-rule="evenodd" d="M168.1 176.487H171.6C172.333 176.487 172.933 176.554 173.4 176.687C173.867 176.887 174.233 177.187 174.5 177.587C174.833 177.921 175.067 178.321 175.2 178.787C175.4 179.254 175.5 179.754 175.5 180.287C175.567 181.154 175.533 181.821 175.4 182.287C175.267 182.754 175.033 183.121 174.7 183.387C174.367 183.721 174 183.954 173.6 184.087C173.133 184.221 172.667 184.287 172.2 184.287H168.6L168.1 176.487ZM171 182.487H171.6C172.067 182.487 172.4 182.454 172.6 182.387C172.8 182.254 172.967 182.054 173.1 181.787C173.167 181.521 173.2 181.054 173.2 180.387C173.133 179.587 172.933 179.021 172.6 178.687C172.333 178.421 171.9 178.287 171.3 178.287H170.7L171 182.487Z" fill="#0552FF"/>
<path fill-rule="evenodd" clip-rule="evenodd" d="M181.3 182.987H178.6L178.3 184.287H175.8L178.2 176.487H180.9L184.4 184.287H181.8L181.3 182.987ZM180.7 181.287L179.6 178.487L179 181.287H180.7Z" fill="#0552FF"/>
<path d="M183.3 176.487H190.6L190.8 178.387H188.3L188.7 184.287H186.3L185.9 178.387H183.4L183.3 176.487Z" fill="#0552FF"/>
<path fill-rule="evenodd" clip-rule="evenodd" d="M196.3 182.987H193.5L193.2 184.287H190.8L193.1 176.487H195.8L199.3 184.287H196.7L196.3 182.987ZM195.7 181.287L194.7 178.487L194 181.287H195.7Z" fill="#0552FF"/>
<path d="M297.6 84.3875C298.5 83.8875 299.5 83.3875 300.5 82.7875C301.5 82.2542 302.5 81.6875 303.5 81.0875C305.5 79.8875 307.4 78.6875 309.3 77.3875C313.1 74.7875 316.6 71.8875 319.8 68.6875C320.3 68.2875 320.6 67.8875 321 67.4875L321.6 66.8875L321.9 66.5875L322 66.3875V66.4875C321.8 66.6875 321.9 66.6875 322 66.3875C322.1 66.1875 322.1 65.6875 322.1 65.2875C322.2 63.4875 321.9 61.1875 321.4 58.9875C320.5 54.4875 319.2 49.8875 317.8 45.3875L321.7 43.6875C324.2 47.9875 326.2 52.4875 327.8 57.2875C328.6 59.6875 329.4 62.1875 329.6 65.1875C329.6 65.8875 329.6 66.6875 329.5 67.6875C329.3 68.5875 329.1 69.6875 328.3 70.9875L328.1 71.1875L328 71.3875L327.8 71.4875L327.5 71.8875L326.9 72.6875C326.5 73.1875 326.1 73.6875 325.6 74.0875C322.2 77.9875 318.3 81.3875 314.2 84.2875C312.2 85.7875 310.1 87.1875 308 88.4875C306.867 89.1542 305.767 89.7875 304.7 90.3875C303.6 90.9875 302.5 91.4875 301.2 92.0875L297.6 84.3875Z" fill="#FFB573"/>
<path fill-rule="evenodd" clip-rule="evenodd" d="M287.1 318.987C286.833 318.787 286.733 318.454 286.8 317.987C286.8 317.687 287 317.487 287.2 317.387C288.1 316.987 290.7 318.587 291 318.787C291.067 318.854 291.1 318.921 291.1 318.987C291.033 319.054 290.967 319.12 290.9 319.187C290.3 319.287 289.5 319.487 288.7 319.487C288 319.487 287.5 319.387 287.1 318.987ZM287.3 317.787C287.3 317.787 287.2 317.887 287.2 317.987C287.133 318.321 287.2 318.554 287.4 318.687C287.8 319.087 288.9 319.187 290.3 318.887C289.3 318.287 287.8 317.587 287.3 317.787Z" fill="#407BFF"/>
<path fill-rule="evenodd" clip-rule="evenodd" d="M290.8 319.187C290 318.687 288.4 316.887 288.6 315.987C288.7 315.787 288.8 315.487 289.3 315.387C289.633 315.321 289.9 315.421 290.1 315.687C291 316.487 291.1 318.887 291.1 318.987C291.1 319.054 291.067 319.121 291 319.187C290.933 319.187 290.9 319.187 290.9 319.187C290.833 319.187 290.8 319.187 290.8 319.187ZM289.3 315.787C289.1 315.787 289 315.887 289 315.987C288.9 316.587 289.9 317.987 290.7 318.587C290.6 317.787 290.4 316.387 289.9 315.987C289.767 315.854 289.6 315.787 289.4 315.787C289.4 315.787 289.367 315.787 289.3 315.787Z" fill="#407BFF"/>
<path d="M290.1 59.3877C289.1 64.2877 287.1 74.3877 290.6 77.6877C290.6 77.6877 289.2 82.7877 280 82.7877C269.8 82.7877 275.1 77.6877 275.1 77.6877C280.7 76.3877 280.5 72.2877 279.6 68.3877L290.1 59.3877Z" fill="#FFB573"/>
<path d="M273.2 79.6874C271.6 79.8874 272.9 75.7874 273.6 75.3874C275.1 74.3874 294.4 72.9874 294.3 75.2874C294.2 76.3874 293.8 78.2874 292.9 78.9874C292.1 79.6874 287.1 77.5874 273.2 79.6874Z" fill="#263238"/>
<path d="M276.3 78.2876C275.1 78.7876 275.2 74.5876 275.6 74.0876C276.6 72.8876 292.3 68.8876 292.8 71.1876C292.9 72.1876 293 74.0876 292.5 74.8876C291.9 75.6876 287.3 74.3876 276.3 78.2876Z" fill="#263238"/>
<path d="M270.5 50.3876C270.367 50.3876 270.267 50.3543 270.2 50.2876C269.1 48.8876 267.6 48.9876 267.6 48.9876C267.4 49.0876 267.2 48.8876 267.2 48.6876C267.1 48.4876 267.3 48.2876 267.5 48.1876C267.6 48.1876 269.4 48.0876 270.8 49.7876C270.9 49.8876 270.9 50.1876 270.7 50.2876C270.633 50.3543 270.567 50.3876 270.5 50.3876Z" fill="#263238"/>
<path d="M268.6 55.2871C268.6 55.2871 267.7 58.2871 266.6 59.7871C267.6 60.5871 269 59.9871 269 59.9871L268.6 55.2871Z" fill="#FF5652"/>
<path d="M269.1 54.0877C269.1 54.7877 268.8 55.2877 268.4 55.3877C267.9 55.3877 267.5 54.8877 267.5 54.1877C267.4 53.5877 267.7 52.9877 268.1 52.8877C268.6 52.8877 269 53.3877 269.1 54.0877Z" fill="#263238"/>
<path d="M268.3 52.9875L266.7 52.6875C266.7 52.6875 267.6 53.7875 268.3 52.9875Z" fill="#263238"/>
<path d="M300.6 318.987H292.2L292.9 299.587H301.3L300.6 318.987Z" fill="#FFB573"/>
<path d="M291.6 317.987H301C301.3 317.987 301.6 318.287 301.6 318.587L302.7 325.987C302.8 326.787 302.2 327.487 301.4 327.487C298.1 327.487 296.5 327.287 292.4 327.287C289.8 327.287 286.1 327.487 282.6 327.487C279.1 327.487 278.9 324.087 280.3 323.687C286.9 322.287 287.9 320.387 290.2 318.487C290.6 318.187 291.1 317.987 291.6 317.987Z" fill="#263238"/>
<g opacity="0.2">
<path d="M301.3 299.587H292.9L292.5 309.587H300.9L301.3 299.587Z" fill="black"/>
</g>
<path d="M267.3 89.2871C262.1 87.2871 257.1 85.0871 252.2 82.5871C247.3 80.0871 242.5 77.3871 237.8 73.7871C236.7 72.8871 235.5 71.8871 234.4 70.6871C234.1 70.3871 233.8 70.1871 233.6 69.7871C233.3 69.4871 233.1 69.2871 232.7 68.6871C232 67.6871 231.5 66.3871 231.3 65.0871C231.2 63.7871 231.5 62.4871 231.8 61.4871C232.2 60.3871 232.7 59.5871 233.2 58.8871C234.3 57.3871 235.5 56.2871 236.6 55.2871C239 53.3871 241.5 51.9871 243.9 50.6871C245.167 50.0204 246.433 49.4204 247.7 48.8871C249 48.2871 250.3 47.7871 251.6 47.2871L253.4 51.1871C249 53.8871 244.5 56.9871 241.2 60.2871C240.4 61.1871 239.7 62.0871 239.2 62.7871C238.8 63.5871 238.8 64.1871 238.9 64.1871C238.9 64.1871 238.9 64.0871 239 64.2871L239.4 64.6871C239.5 64.8871 239.8 65.0871 239.9 65.1871C240.7 65.9871 241.7 66.6871 242.6 67.3871C244.6 68.7871 246.8 70.0871 249.1 71.3871C251.367 72.6538 253.667 73.8538 256 74.9871C260.7 77.1871 265.6 79.3871 270.4 81.3871L267.3 89.2871Z" fill="#FFB573"/>
<path d="M255.9 48.4871L257.3 45.4871L251 43.2871C251 43.2871 249 49.1871 251.3 51.8871C253.3 51.5871 255 50.2871 255.9 48.4871Z" fill="#FFB573"/>
<path d="M257.3 38.9873L252.2 37.4873L251 43.2873L257.3 45.4873V38.9873Z" fill="#FFB573"/>
<path d="M322.3 45.6875L323 38.6875L316.5 40.1875C316.5 40.1875 316.4 46.7875 319.8 47.8875L322.3 45.6875Z" fill="#FFB573"/>
<path d="M319.9 33.7871L315.6 35.7871L316.5 40.1871L323 38.6871L319.9 33.7871Z" fill="#FFB573"/>
<path d="M291.4 49.5875C291.7 57.8875 292.1 61.3875 288.3 65.9875C282.7 72.9875 272.4 71.5875 269.6 63.4875C267.1 56.2875 267 43.8875 274.8 39.7875C282.4 35.7875 291.1 41.1875 291.4 49.5875Z" fill="#FFB573"/>
<path d="M287.8 65.9876C296 62.4876 301.3 55.0876 299.1 43.3876C296.9 32.2876 289.4 31.1876 286.3 33.4876C283.2 35.7876 275.5 32.3876 270.8 36.2876C262.8 43.0876 270.4 50.2876 274.4 54.6876C276.7 59.4876 279.8 69.4876 287.8 65.9876Z" fill="#263238"/>
<path d="M284.4 41.3872C287.2 45.3872 292.5 46.4872 296.2 43.9872C300 41.3872 300.8 35.9872 298.1 31.9872C295.3 27.9872 290 26.8872 286.3 29.4872C282.5 32.0872 281.7 37.4872 284.4 41.3872Z" fill="#407BFF"/>
<path d="M286.6 34.2873C285.4 27.5873 291.7 22.3873 300.2 24.8873C308.7 27.3873 304.2 34.8873 302.4 40.8873C300.7 46.8873 305.3 52.6873 307.2 48.0873C309.1 43.4873 305.9 42.0873 305.9 42.0873C305.9 42.0873 314.9 44.3873 306.5 54.5873C298.2 64.6873 290.6 53.4873 292.6 46.8873C294.3 41.5873 287.7 40.5873 286.6 34.2873Z" fill="#263238"/>
<path d="M278.1 36.7872C274.2 34.7872 267.7 33.1872 263.9 39.4872C262.2 42.3872 262.9 46.3872 262.9 46.3872L274.2 47.1872L278.1 36.7872Z" fill="#263238"/>
<path d="M261.5 44.4875C261.4 44.4875 261.3 44.2875 261.3 44.1875C261.3 43.9875 261.5 39.9875 264 37.4875C269.8 31.3875 276.7 36.4875 278.7 38.1875C278.8 38.1875 278.8 38.3875 278.7 38.4875C278.6 38.5875 278.5 38.5875 278.4 38.4875C276.5 36.8875 269.9 32.0875 264.3 37.7875C262 40.1875 261.8 44.1875 261.8 44.1875C261.8 44.3875 261.6 44.4875 261.5 44.4875Z" fill="#263238"/>
<path d="M275.8 54.2873C275.7 55.9873 275 57.4873 274.1 58.5873C272.7 60.1873 271.1 59.3873 270.8 57.5873C270.4 55.9873 270.8 53.1873 272.5 52.2873C274.2 51.2873 275.8 52.4873 275.8 54.2873Z" fill="#FFB573"/>
<path d="M274 130.388C274 130.388 274.5 188.588 279.5 220.988C283.6 247.088 291.1 307.688 291.1 307.688H302.6C302.6 307.688 303.7 249.188 301.6 223.288C296.4 157.888 309.9 145.588 299 130.388H274Z" fill="#263238"/>
<path opacity="0.1" d="M274 130.388C274 130.388 274.5 188.588 279.5 220.988C283.6 247.088 291.1 307.688 291.1 307.688H302.6C302.6 307.688 303.7 249.188 301.6 223.288C296.4 157.888 309.9 145.588 299 130.388H274Z" fill="white"/>
<path opacity="0.3" d="M280 156.787C284 174.387 280.8 201.987 278.6 214.187C276.3 195.687 275.1 171.687 274.5 154.187C276.6 150.787 278.5 150.587 280 156.787Z" fill="black"/>
<path d="M289.6 307.887H304.1L304.9 302.787L289.5 302.287L289.6 307.887Z" fill="#407BFF"/>
<path d="M293.7 81.2877C295.1 78.5877 302.5 76.8877 306.5 76.8877L309.5 90.2877C309.5 90.2877 301.5 102.188 298.1 100.888C294.2 99.3877 290.8 87.1877 293.7 81.2877Z" fill="#407BFF"/>
<path opacity="0.4" d="M293.7 81.2877C295.1 78.5877 302.5 76.8877 306.5 76.8877L309.5 90.2877C309.5 90.2877 301.5 102.188 298.1 100.888C294.2 99.3877 290.8 87.1877 293.7 81.2877Z" fill="black"/>
<path fill-rule="evenodd" clip-rule="evenodd" d="M285.2 304.587C284.3 305.687 282.5 307.287 281.3 307.187C280.967 307.187 280.7 306.987 280.5 306.587C280.367 306.387 280.333 306.187 280.4 305.987C280.9 304.987 284.6 304.387 285.1 304.287C285.167 304.287 285.233 304.32 285.3 304.387C285.3 304.454 285.3 304.52 285.3 304.587C285.233 304.587 285.2 304.587 285.2 304.587ZM280.8 306.187C280.733 306.254 280.733 306.32 280.8 306.387C280.933 306.654 281.133 306.787 281.4 306.787C282 306.887 283.2 306.087 284.5 304.787C283.1 305.087 281.2 305.587 280.8 306.187Z" fill="#407BFF"/>
<path fill-rule="evenodd" clip-rule="evenodd" d="M285.1 304.687C284.1 304.887 281.4 304.587 281 303.787C280.9 303.587 280.8 303.187 281.2 302.887C281.533 302.621 281.9 302.487 282.3 302.487C283.7 302.587 285.2 304.287 285.2 304.387C285.267 304.454 285.3 304.521 285.3 304.587C285.233 304.654 285.167 304.687 285.1 304.687ZM281.3 303.587C281.6 304.087 283.5 304.487 284.7 304.387C284.2 303.887 283.2 302.987 282.3 302.887C281.967 302.887 281.7 302.987 281.5 303.187C281.433 303.254 281.367 303.321 281.3 303.387C281.3 303.487 281.3 303.587 281.3 303.587Z" fill="#407BFF"/>
<path d="M294 301.087L286.3 304.487L282.9 297.387L278.4 288.087L277.9 286.987L285.6 283.587L286.2 284.787L290.5 293.787L294 301.087Z" fill="#FFB573"/>
<path opacity="0.2" d="M290.5 293.787L282.9 297.387L278.4 288.087L286.2 284.787L290.5 293.787Z" fill="black"/>
<path d="M265 130.388C265 130.388 240.5 191.288 247.1 219.888C253.1 245.788 279.6 294.788 279.6 294.788L289.9 289.688C289.9 289.688 273.5 230.488 271.7 217.588C268.3 192.588 290.5 157.288 290.5 130.388H265Z" fill="#263238"/>
<path opacity="0.1" d="M265 130.388C265 130.388 240.5 191.288 247.1 219.888C253.1 245.788 279.6 294.788 279.6 294.788L289.9 289.688C289.9 289.688 273.5 230.488 271.7 217.588C268.3 192.588 290.5 157.288 290.5 130.388H265Z" fill="white"/>
<path d="M285 303.387L292.6 297.887C292.8 297.687 293.2 297.687 293.4 297.887L298.7 303.287C299.2 303.887 299.1 304.887 298.5 305.287C295.8 307.187 294.4 307.987 291.1 310.387C289 311.887 284.9 315.187 282.1 317.287C279.3 319.287 277 316.687 278 315.487C282.5 310.487 283.4 307.387 284.1 304.587C284.3 304.087 284.5 303.687 285 303.387Z" fill="#263238"/>
<path d="M279 296.987L292.2 290.887L290.5 285.587L276.3 291.987L279 296.987Z" fill="#407BFF"/>
<path d="M271.5 80.6869C270.4 77.7869 260.8 74.6869 256 73.5869L253.9 89.3869C253.9 89.3869 261.7 100.587 265.2 99.6869C269.2 98.5869 273.8 86.6869 271.5 80.6869Z" fill="#407BFF"/>
<path opacity="0.4" d="M271.5 80.6869C270.4 77.7869 260.8 74.6869 256 73.5869L253.9 89.3869C253.9 89.3869 261.7 100.587 265.2 99.6869C269.2 98.5869 273.8 86.6869 271.5 80.6869Z" fill="black"/>
<path d="M261 79.8877C261 79.8877 257 81.2877 265 130.388C278.5 130.388 292.4 130.388 299 130.388C298.4 116.588 298.4 107.988 305 79.5877C305 79.5877 297.9 78.0877 290.6 77.6877C284.8 77.3877 280.2 77.2877 275.1 77.6877C268.5 78.2877 261 79.8877 261 79.8877Z" fill="#407BFF"/>
<path opacity="0.4" d="M261 79.8877C261 79.8877 257 81.2877 265 130.388C278.5 130.388 292.4 130.388 299 130.388C298.4 116.588 298.4 107.988 305 79.5877C305 79.5877 297.9 78.0877 290.6 77.6877C284.8 77.3877 280.2 77.2877 275.1 77.6877C268.5 78.2877 261 79.8877 261 79.8877Z" fill="black"/>
<path d="M299.5 128.388L301 131.488C301.2 131.688 300.9 131.888 300.5 131.888H264.8C264.5 131.888 264.2 131.788 264.2 131.588L263.9 128.588C263.9 128.288 264.2 128.188 264.5 128.188H298.9C299.2 128.188 299.4 128.288 299.5 128.388Z" fill="#407BFF"/>
<path opacity="0.3" d="M299.5 128.388L301 131.488C301.2 131.688 300.9 131.888 300.5 131.888H264.8C264.5 131.888 264.2 131.788 264.2 131.588L263.9 128.588C263.9 128.288 264.2 128.188 264.5 128.188H298.9C299.2 128.188 299.4 128.288 299.5 128.388Z" fill="white"/>
<path d="M294.9 132.288H295.8C296 132.288 296.1 132.188 296.1 132.088L295.7 128.088C295.7 127.988 295.5 127.888 295.3 127.888H294.4C294.2 127.888 294.1 127.988 294.1 128.088L294.5 132.088C294.5 132.188 294.7 132.288 294.9 132.288Z" fill="#263238"/>
<path d="M272.5 132.288H273.4C273.6 132.288 273.8 132.188 273.7 132.088L273.3 128.088C273.3 127.988 273.1 127.888 273 127.888H272C271.8 127.888 271.7 127.988 271.7 128.088L272.2 132.088C272.2 132.188 272.3 132.288 272.5 132.288Z" fill="#263238"/>
</svg>
