<svg width="397" height="351" viewBox="0 0 397 351" fill="none" xmlns="http://www.w3.org/2000/svg">
<path d="M8.8 183.3H117.3C122.1 183.3 126.1 187.3 126.1 192.1L138.1 268.6H12L0 192.1C0 187.3 3.9 183.3 8.8 183.3Z" fill="#EBEBEB"/>
<path d="M137.8 212.9L137.7 212.5H179.7V305.5H127.7V223.6C127.7 217.8 132 213.1 137.8 212.9Z" fill="#E0E0E0"/>
<path d="M180.1 212.899C186 212.899 190.9 217.699 190.9 223.599V305.499H169.3V223.599C169.3 217.699 174.1 212.899 180.1 212.899Z" fill="#F0F0F0"/>
<path d="M16.8 212.9L16.7 212.5H58.7V305.5H6.70001V223.6C6.70001 217.8 11 213.1 16.8 212.9Z" fill="#E0E0E0"/>
<path d="M162.3 305.5H69.9V240H162.3V305.5Z" fill="#E0E0E0"/>
<path d="M52.3 256H156.3C162.5 256 167.6 250.9 167.6 244.6C167.6 238.4 162.5 233.3 156.3 233.3H52.3V256Z" fill="#F5F5F5"/>
<path d="M59.1 212.899C65 212.899 69.9 217.699 69.9 223.599V305.499H48.3V223.599C48.3 217.699 53.1 212.899 59.1 212.899Z" fill="#F0F0F0"/>
<path d="M29.6 269.7H12L0 192.1C0 187.3 3.9 183.3 8.8 183.3C13.7 183.3 17.6 187.3 17.6 192.1L29.6 269.7Z" fill="#E0E0E0"/>
<path d="M202.9 350.1C95.7 350.1 9 345 9 338.7C9 332.5 95.7 327.4 202.9 327.4C310.1 327.4 396.8 332.5 396.8 338.7C396.8 345 310.1 350.1 202.9 350.1Z" fill="#F5F5F5"/>
<path d="M44.2 307.1C44 306.1 40.5 282 47.5 273.6C49.1 271.8 51.0333 270.867 53.3 270.8C67.5 270.4 69.4 281.8 69.5 281.9L67.8 282.2C67.7 281.8 66 272.2 53.4 272.5C51.6 272.5 50.1 273.2 48.8 274.7C42.3 282.5 45.8 306.7 45.8 306.9L44.2 307.1Z" fill="#407BFF"/>
<path d="M43.3 306H41.6C41.6 305.8 42.2 283.7 31.3 279.2C20.7 274.7 15.9 283.9 15.7 284.3L14.2 283.5C14.3 283.4 19.9 272.6 32 277.6C43.9 282.6 43.3 305.1 43.3 306Z" fill="#407BFF"/>
<path d="M43.4 307.8C43.4 307.4 43.3 272.6 36.5 262.4C29.9 252.6 19.4 257.2 19 257.4L18.3 255.9C18.4 255.8 30.5 250.5 37.9 261.5C44.9 272.1 45 306.3 45 307.8H43.4Z" fill="#407BFF"/>
<path d="M55.4 271.6C55.4 271.6 49.2 273.9 51 279.3C52.9 284.6 72.4 293.5 72.4 293.5C72.4 293.5 80.6 286 73.1 273.8C65.6 261.6 55.5 267.8 55.4 271.6Z" fill="#407BFF"/>
<path d="M36.2 260.6C36.2 260.6 40.5 260.1 40.2 257.4C39.8 254.7 23.1 247.9 13.3 259C13.3 259 19.6 269.8 28.7 270C37.8 270.1 36.2 260.6 36.2 260.6Z" fill="#407BFF"/>
<path d="M31.7 278.4C31.7 278.4 34.7 275.999 31.4 274.799C28.1 273.599 12.1 273.899 11.9 289.799C11.9 289.799 30.6 292.9 32.9 286.9C35.2 280.8 31.7 278.4 31.7 278.4Z" fill="#407BFF"/>
<path opacity="0.2" d="M55.4 271.6C55.4 271.6 49.2 273.9 51 279.3C52.9 284.6 72.4 293.5 72.4 293.5C72.4 293.5 80.6 286 73.1 273.8C65.6 261.6 55.5 267.8 55.4 271.6Z" fill="white"/>
<path opacity="0.2" d="M36.2 260.6C36.2 260.6 40.5 260.1 40.2 257.4C39.8 254.7 23.1 247.9 13.3 259C13.3 259 19.6 269.8 28.7 270C37.8 270.1 36.2 260.6 36.2 260.6Z" fill="white"/>
<path opacity="0.2" d="M31.7 278.4C31.7 278.4 34.7 275.999 31.4 274.799C28.1 273.599 12.1 273.899 11.9 289.799C11.9 289.799 30.6 292.9 32.9 286.9C35.2 280.8 31.7 278.4 31.7 278.4Z" fill="white"/>
<path d="M58.7 339.5H29.7L26.6 307.8H61.8L58.7 339.5Z" fill="#407BFF"/>
<path opacity="0.5" d="M58.7 339.5H29.7L26.6 307.8H61.8L58.7 339.5Z" fill="white"/>
<path d="M25 304.3H63.4V311.3H25V304.3Z" fill="#407BFF"/>
<path opacity="0.2" d="M25 304.3H63.4V311.3H25V304.3Z" fill="white"/>
<path d="M343.6 339.5H175.6C169.9 339.5 165.2 334.8 165.2 329.1V10.4C165.2 4.7 169.9 0 175.6 0H343.6C349.3 0 354 4.7 354 10.4V329.1C354 334.8 349.3 339.5 343.6 339.5Z" fill="#263238"/>
<path d="M347.7 11.3996L347.6 327.5C347.6 330.1 345.6 332.1 343 332.1H175.8C173.4 332.1 171.6 330.3 171.6 327.9V10.9996C171.6 8.89961 173.2 7.09961 175.2 7.09961H217C218.2 7.09961 219.3 7.89961 219.7 8.99961L221.4 13.2996C221.9 14.3996 222.9 15.0996 224.1 15.0996H295.3C296.4 15.0996 297.5 14.3996 297.9 13.2996L299.7 8.99961C300.1 7.89961 301.2 7.09961 302.4 7.09961H343.6C345.8 7.09961 347.6 9.09961 347.6 11.3996H347.7Z" fill="#C2D5FF"/>
<path opacity="0.6" d="M255.7 9.99961C254.3 9.99961 253.2 8.89961 253.2 7.59961C253.2 6.19961 254.3 5.09961 255.7 5.09961C257 5.09961 258.1 6.19961 258.1 7.59961C258.1 8.89961 257 9.99961 255.7 9.99961Z" fill="white"/>
<path opacity="0.6" d="M263 7.6C263 8.4 262.3 9.1 261.4 9.1C260.6 9.1 259.9 8.4 259.9 7.6C259.9 6.7 260.6 6 261.4 6C262.3 6 263 6.7 263 7.6Z" fill="white"/>
<path opacity="0.6" d="M193.7 19.9H191.5V17H193.7V19.9Z" fill="white"/>
<path opacity="0.6" d="M190.1 19.9H188V16H190.1V19.9Z" fill="white"/>
<path opacity="0.6" d="M186.6 19.9H184.4V15H186.6V19.9Z" fill="white"/>
<path opacity="0.6" d="M183 19.8996H180.9V14.0996H183V19.8996Z" fill="white"/>
<path opacity="0.6" d="M326.9 15.9004H328.2V18.8004H326.9V15.9004Z" fill="white"/>
<path opacity="0.6" d="M339.3 19.9004H329.1V14.9004H339.3V19.9004Z" fill="white"/>
<path opacity="0.4" d="M244.7 65.4C244.7 75.3 239.4 84.1 231.4 88.8C227.3 91.3 222.5 92.7 217.3 92.7C212.7 92.7 208.3 91.6 204.5 89.5C195.8 84.9 190 75.8 190 65.4C190 50.3 202.2 38 217.3 38C232.5 38 244.7 50.3 244.7 65.4Z" fill="white"/>
<path opacity="0.3" d="M231.4 88.8996C227.3 91.2996 222.5 92.6996 217.3 92.6996C212.7 92.6996 208.3 91.5996 204.5 89.4996C204.833 89.433 205.167 89.3996 205.5 89.3996C205.5 89.3996 205.5 89.3663 205.5 89.2996C208.1 86.4996 208 80.4996 207.2 75.2996C207 74.9663 206.8 74.633 206.6 74.2996C206.1 73.3996 205 71.5996 204.3 68.6996C203.1 67.7996 202.3 66.4996 201.8 65.0996C201.4 63.4996 201.9 61.9996 203.1 61.1996C202.967 60.3996 202.9 59.5663 202.9 58.6996C202.9 58.6996 199.6 55.7996 201.7 54.1996C203.7 52.5996 204.2 50.2996 205.5 47.6996C206.7 44.9996 212.3 41.4996 218.3 45.5996C218.3 45.5996 221.4 44.4996 222.8 45.2996C224.2 46.0996 225.4 48.1996 225.4 48.1996C225.4 48.1996 226.9 46.3996 228.6 48.0996C230.2 49.6996 228.9 55.7996 230.3 57.1996C231.5 58.5996 229.1 60.2996 228.6 60.5996C228.467 61.3996 228.233 62.1996 227.9 62.9996C228 66.8996 227.1 70.8996 225.8 73.8996C225.667 74.233 225.5 74.5663 225.3 74.8996C223.9 77.3996 221.6 79.1996 219 79.9996C218.4 80.1996 217.767 80.333 217.1 80.3996C217.1 81.5996 217.2 82.7996 217.5 83.8996C218.2 85.8996 219.9 87.4996 223.3 88.0996C223.3 88.0996 223.333 88.133 223.4 88.1996C224.1 88.1996 224.8 88.1996 225.5 88.1996C227.4 88.2996 229.1 88.4996 230.7 88.6996C230.9 88.7663 231.133 88.7996 231.4 88.7996V88.8996Z" fill="black"/>
<path opacity="0.5" d="M306.7 50.5994H268.6C266.5 50.5994 264.8 48.8994 264.8 46.6994C264.8 44.5994 266.5 42.8994 268.6 42.8994H306.7C308.9 42.8994 310.6 44.5994 310.6 46.6994C310.6 48.8994 308.9 50.5994 306.7 50.5994Z" fill="white"/>
<path opacity="0.5" d="M327.7 65.3998H267.1C265.8 65.3998 264.8 64.2998 264.8 63.0998C264.8 61.7998 265.8 60.7998 267.1 60.7998H327.7C328.9 60.7998 330 61.7998 330 63.0998C330 64.2998 328.9 65.3998 327.7 65.3998Z" fill="white"/>
<path opacity="0.5" d="M307.7 75.3998H267.1C265.8 75.3998 264.8 74.2998 264.8 73.0998C264.8 71.7998 265.8 70.7998 267.1 70.7998H307.7C308.9 70.7998 310 71.7998 310 73.0998C310 74.2998 308.9 75.3998 307.7 75.3998Z" fill="white"/>
<path opacity="0.3" d="M271.3 318.5H247.9C246.6 318.5 245.6 317.4 245.6 316.1V310.8C245.6 309.5 246.6 308.4 247.9 308.4H271.3C272.6 308.4 273.7 309.5 273.7 310.8V316.1C273.7 317.4 272.6 318.5 271.3 318.5Z" fill="black"/>
<path opacity="0.5" d="M309.9 291.6H209.3C208.1 291.6 207 290.6 207 289.3C207 288 208.1 287 209.3 287H309.9C311.2 287 312.2 288 312.2 289.3C312.2 290.6 311.2 291.6 309.9 291.6Z" fill="white"/>
<path opacity="0.5" d="M294.9 301.6H224.3C223.1 301.6 222 300.6 222 299.3C222 298 223.1 297 224.3 297H294.9C296.2 297 297.2 298 297.2 299.3C297.2 300.6 296.2 301.6 294.9 301.6Z" fill="white"/>
<path opacity="0.4" d="M179 104H340.3V155.5H179V104Z" fill="white"/>
<path opacity="0.5" d="M286.5 113.6H256.6C255.4 113.6 254.4 112.6 254.4 111.4C254.4 110.2 255.4 109.2 256.6 109.2H286.5C287.7 109.2 288.7 110.2 288.7 111.4C288.7 112.6 287.7 113.6 286.5 113.6Z" fill="white"/>
<path opacity="0.5" d="M314.5 122.6H256.6C255.4 122.6 254.4 121.6 254.4 120.4C254.4 119.2 255.4 118.2 256.6 118.2H314.5C315.7 118.2 316.7 119.2 316.7 120.4C316.7 121.6 315.7 122.6 314.5 122.6Z" fill="white"/>
<path opacity="0.3" d="M184.9 109.2H244.5V149.9H184.9V109.2Z" fill="black"/>
<path opacity="0.3" d="M184.9 140.4L199 127L211 138.7L221.4 128.6L244.4 149.9H184.9V140.4Z" fill="black"/>
<path opacity="0.5" d="M233.9 123.3C231.7 123.3 229.9 121.5 229.9 119.3C229.9 117.1 231.7 115.3 233.9 115.3C236.1 115.3 237.8 117.1 237.8 119.3C237.8 121.5 236.1 123.3 233.9 123.3Z" fill="white"/>
<path opacity="0.4" d="M179 160.5H340.3V212H179V160.5Z" fill="white"/>
<path opacity="0.5" d="M286.5 170.1H256.6C255.4 170.1 254.4 169.1 254.4 167.9C254.4 166.7 255.4 165.7 256.6 165.7H286.5C287.7 165.7 288.7 166.7 288.7 167.9C288.7 169.1 287.7 170.1 286.5 170.1Z" fill="white"/>
<path opacity="0.5" d="M314.5 179.1H256.6C255.4 179.1 254.4 178.1 254.4 176.9C254.4 175.7 255.4 174.7 256.6 174.7H314.5C315.7 174.7 316.7 175.7 316.7 176.9C316.7 178.1 315.7 179.1 314.5 179.1Z" fill="white"/>
<path opacity="0.3" d="M184.9 165.7H244.5V206.4H184.9V165.7Z" fill="black"/>
<path opacity="0.3" d="M184.9 196.9L199 183.5L211 195.2L221.4 185.1L244.4 206.4H184.9V196.9Z" fill="black"/>
<path opacity="0.5" d="M233.9 179.8C231.7 179.8 229.9 178 229.9 175.8C229.9 173.6 231.7 171.8 233.9 171.8C236.1 171.8 237.8 173.6 237.8 175.8C237.8 178 236.1 179.8 233.9 179.8Z" fill="white"/>
<path opacity="0.4" d="M179 217H340.3V268.5H179V217Z" fill="white"/>
<path opacity="0.5" d="M286.5 226.6H256.6C255.4 226.6 254.4 225.6 254.4 224.4C254.4 223.2 255.4 222.2 256.6 222.2H286.5C287.7 222.2 288.7 223.2 288.7 224.4C288.7 225.6 287.7 226.6 286.5 226.6Z" fill="white"/>
<path opacity="0.5" d="M314.5 235.6H256.6C255.4 235.6 254.4 234.6 254.4 233.4C254.4 232.2 255.4 231.2 256.6 231.2H314.5C315.7 231.2 316.7 232.2 316.7 233.4C316.7 234.6 315.7 235.6 314.5 235.6Z" fill="white"/>
<path opacity="0.3" d="M184.9 222.2H244.5V262.9H184.9V222.2Z" fill="black"/>
<path opacity="0.3" d="M184.9 253.4L199 240L211 251.7L221.4 241.6L244.4 262.9H184.9V253.4Z" fill="black"/>
<path opacity="0.5" d="M233.9 236.3C231.7 236.3 229.9 234.5 229.9 232.3C229.9 230.1 231.7 228.3 233.9 228.3C236.1 228.3 237.8 230.1 237.8 232.3C237.8 234.5 236.1 236.3 233.9 236.3Z" fill="white"/>
<path d="M158.8 126.099C153.7 128.199 149.3 123.099 149.1 116.899C149.1 116.899 144.4 113.899 139.1 110.699C134.6 107.899 129.7 104.999 126.8 103.699C126.1 103.399 125.5 102.899 125 102.299C120.9 96.9992 122.8 81.6992 122.8 81.6992C132.3 82.6992 151.3 99.8992 159.6 108.199C167.9 116.499 163.9 124.099 158.8 126.099Z" fill="#407BFF"/>
<path opacity="0.2" d="M139.1 110.699C134.6 107.899 129.7 104.999 126.8 103.699C126.1 103.399 125.5 102.899 125 102.299L131.7 96.3994C131.7 96.3994 137.6 104.099 139.1 110.699Z" fill="black"/>
<path d="M127.5 332.1L135.6 332.9L137.2 315.4L129 314.6L127.5 332.1Z" fill="#E4897B"/>
<path d="M87 331.499H94.9L95.6 313.199L87.7 313.299L87 331.499Z" fill="#E4897B"/>
<path d="M96 330.6L86.4 330.5C86.1 330.6 85.8 330.8 85.8 331.1L84.2 338.1C84.1 338.7 84.5 339.3 85.1 339.5C85.1667 339.5 85.2667 339.5 85.4 339.5C88.5 339.4 90.7 339.2 94.6 339.2C97 339.2 104.2 339.5 107.5 339.5C110.8 339.5 111.2 336.2 109.9 335.9C103.8 334.6 99.2 332.8 97.3 331C97 330.7 96.5 330.5 96 330.5V330.6Z" fill="#263238"/>
<path fill-rule="evenodd" clip-rule="evenodd" d="M96.5 331.599C96.4333 331.599 96.4 331.566 96.4 331.499C96.4 331.432 96.4333 331.366 96.5 331.299C96.8 331.099 99.3 329.599 100.2 329.999C100.4 330.099 100.5 330.299 100.5 330.499C100.5 330.899 100.4 331.299 100.1 331.499C99.7 331.799 99.1 331.999 98.6 331.899C97.8667 331.899 97.1667 331.799 96.5 331.599ZM97.1 331.399C98 331.699 99 331.599 99.9 331.199C100.1 331.099 100.2 330.799 100.1 330.599C100.1 330.399 100.067 330.299 100 330.299C99.9333 330.299 99.8667 330.299 99.8 330.299C98.8 330.499 97.9 330.866 97.1 331.399Z" fill="#407BFF"/>
<path fill-rule="evenodd" clip-rule="evenodd" d="M96.5 331.699C96.4333 331.633 96.4 331.566 96.4 331.499C96.4 331.399 96.6 329.099 97.5 328.399C97.7 328.199 98 328.099 98.3 328.199C98.6 328.199 98.8 328.399 98.9 328.599C99.1 329.499 97.5 331.199 96.7 331.599H96.6C96.5333 331.666 96.5 331.699 96.5 331.699ZM97.7 328.599C97.2 329.299 96.9 330.199 96.8 331.099C97.6 330.499 98.6 329.199 98.5 328.599C98.5 328.599 98.5 328.499 98.3 328.499H98.2C98 328.499 97.8333 328.533 97.7 328.599Z" fill="#407BFF"/>
<path d="M136.5 330.3H126.9C126.6 330.3 126.3 330.5 126.3 330.8L124.7 337.8C124.6 338.5 125 339.1 125.6 339.2C125.667 339.2 125.767 339.2 125.9 339.2C129 339.2 131.2 339 135.1 339C137.5 339 144.7 339.2 148 339.2C151.3 339.2 151.7 336 150.4 335.7C144.3 334.4 139.7 332.5 137.8 330.8C137.5 330.5 137 330.3 136.5 330.3Z" fill="#263238"/>
<path fill-rule="evenodd" clip-rule="evenodd" d="M137 331.4C136.933 331.4 136.9 331.333 136.9 331.2C136.9 331.133 136.933 331.066 137 331C137.3 330.9 139.8 329.3 140.7 329.8C140.9 329.9 141 330.1 141 330.3C141 330.7 140.9 331 140.6 331.3C140.2 331.6 139.6 331.7 139.1 331.7C138.367 331.633 137.667 331.533 137 331.4ZM137.6 331.1C138.5 331.4 139.5 331.4 140.4 331C140.6 330.8 140.7 330.6 140.6 330.3C140.6 330.166 140.567 330.1 140.5 330.1C140.433 330.033 140.367 330 140.3 330C139.3 330.2 138.4 330.566 137.6 331.1Z" fill="#407BFF"/>
<path fill-rule="evenodd" clip-rule="evenodd" d="M137 331.399C136.933 331.399 136.9 331.366 136.9 331.299C136.9 331.199 137.1 328.899 138 328.199C138.2 327.999 138.5 327.899 138.8 327.899C139.1 327.899 139.3 328.099 139.4 328.399C139.6 329.199 138 330.999 137.2 331.399H137.1C137.033 331.399 137 331.399 137 331.399ZM138.2 328.399C137.7 329.099 137.4 329.899 137.3 330.799C138.1 330.199 139.1 328.899 139 328.399C139 328.299 139 328.199 138.8 328.199H138.7C138.5 328.199 138.333 328.266 138.2 328.399Z" fill="#407BFF"/>
<path opacity="0.2" d="M129 314.6L137.2 315.4L136.4 324.4L128.3 323.6L129 314.6Z" fill="black"/>
<path opacity="0.2" d="M87.7 313.3H95.5L95.2 322.6H87.3L87.7 313.3Z" fill="black"/>
<path d="M90.9 153.5H132.7C136.6 175.2 149 251.8 140.1 320.2L126 318.4C126 318.4 127.3 227.7 114.8 194.2C113.4 212.1 111.7 231.2 110.2 241.4C106.6 266.4 98.8 321 98.8 321H84.4C84.4 321 87.4 268.7 88.7 244.2C90.2 217.5 90.9 159 90.9 153.5Z" fill="#263238"/>
<path opacity="0.2" d="M84.4 321H98.8C98.8 321 106.6 266.4 110.2 241.4C111.7 231.2 113.4 212.1 114.8 194.2C116.7 199.1 118.2 205.3 119.5 212.3C126.9 252.5 126 318.4 126 318.4L140.1 320.4C149 252.1 136.6 175 132.6 154H90.9C90.9 159 90.2 217.7 88.7 244.4C87.4 269 84.4 321 84.4 321Z" fill="white"/>
<path d="M141.7 323.4L124.3 320.8L124.8 316L143 318.4L141.7 323.4Z" fill="#407BFF"/>
<path d="M100.6 321.099H83.6V316.099L101.2 315.699L100.6 321.099Z" fill="#407BFF"/>
<path opacity="0.2" d="M114.8 194.199C116.7 199.099 118.2 205.299 119.5 212.299C120.7 196.299 116 179.399 116 179.399L114.8 194.199Z" fill="black"/>
<path d="M68.2 134.1C68.2 134.1 87.7 152.1 89.5 154C91.4 155.9 91.2 169.4 89.5 169.9C87.8 170.5 82.3 171.5 82.1 169.9C81.9 168.4 82.4 159.7 82.4 159.7L83.7 157.9L62.3 142.5L68.2 134.1Z" fill="#E4897B"/>
<path d="M83.7 85C70 87.5 50.3 112.9 52.8 129.7C54.6 140.9 65.8 147 65.8 147L75 137.5C75 137.5 69.2 132.4 68 129.2C64.6 119.6 77.1 104.9 87.4 101.8L89.5 93.3L83.7 85Z" fill="#407BFF"/>
<path d="M83.7 84.9996C86 93.4996 87.7 102.2 88.7 110.9C89.0333 113.566 89.3 116.2 89.5 118.8C89.8 122 90 125.1 90.2 128.1C90.4 131.8 90.4 136.3 90.4 140.6C90.4 150.6 90 160.3 90 160.3C98 162.3 121.1 160.9 133.8 160C135.4 147.2 135.5 134.7 134.9 123.6C134.4 114.4 133.4 106.2 132.3 99.6996C131.3 93.9996 130.2 89.6996 129.4 87.1996C128.5 84.1996 125.9 81.9996 122.8 81.6996C121.3 81.4996 119.5 81.2996 117.6 81.1996C116.9 81.1996 116.2 81.0996 115.5 81.0996C109.5 81.1663 103.533 81.5663 97.6 82.2996C96.5 82.4996 95.4 82.5996 94.3 82.7996C88.6 83.6996 83.7 84.9996 83.7 84.9996Z" fill="#407BFF"/>
<path opacity="0.7" d="M133.7 160C121.1 160.9 98 162.3 90 160.3C90 160.3 90.4 150.6 90.4 140.6C90.4 136.3 90.4 131.8 90.2 128.1C90 125.1 89.8 122 89.5 118.8C89.3 116.2 89.0334 113.566 88.7 110.9C88.6334 110.166 88.5334 109.433 88.4 108.7C88.1334 106.433 87.8 104.133 87.4 101.8L91.3 96.1998L99.1 84.9998C99.1 84.9998 111.9 90.1998 117.3 82.7998C117.3 82.7998 125.8 89.0998 131.6 96.3998C131.867 97.4665 132.1 98.5665 132.3 99.6998C133.4 106.2 134.4 114.4 134.9 123.6C135.5 134.7 135.4 147.2 133.7 160Z" fill="white"/>
<path d="M121 47.4C121 47.4 122.3 56.4 116.6 60.5C110.8 64.7 110.8 44.5 110.8 44.5L121 47.4Z" fill="#263238"/>
<path d="M97.6 82.2996C101.5 85.7996 110.8 84.4996 110.8 84.4996C110.8 84.4996 116.7 82.8996 115.5 80.9996C112 80.4996 110.3 78.8996 109.7 76.7996C109.3 75.5996 109.2 74.1996 109.3 72.8996C109.367 72.1663 109.467 71.4329 109.6 70.6996L98 62.0996C99.5 67.6996 101.4 78.1996 97.6 82.2996Z" fill="#E4897B"/>
<path opacity="0.2" d="M100.7 67.5C101.1 74.5 106.9 76.4 109.6 76.8C109.2 75.6 109.2 74.2 109.3 72.9L100.7 67.5Z" fill="black"/>
<path d="M99.9 69.1C102.7 73.1 107.2 74.2 111.2 72.9C113.7 72.1 116 70.4 117.4 67.9C117.6 67.5667 117.8 67.2 118 66.8C120.8 60.2 121.7 48.6 114.7 44.3C109.7 41.1 103.1 42.6 100 47.6C99.1 49 98.6 50.6 98.4 52.3C97.5 60 96.7 64.6 99.9 69.1Z" fill="#E4897B"/>
<path d="M109.7 56.3994C109.5 57.0994 109.8 57.5994 110.2 57.6994C110.6 57.7994 111.1 57.2994 111.2 56.6994C111.3 56.0994 111 55.4994 110.6 55.3994C110.2 55.3994 109.8 55.7994 109.7 56.3994Z" fill="#263238"/>
<path d="M116.7 57.5996C116.6 58.2996 116.9 58.7996 117.3 58.8996C117.7 58.9996 118.1 58.4996 118.2 57.8996C118.3 57.2996 118.1 56.6996 117.7 56.5996C117.3 56.5996 116.9 57.0996 116.7 57.5996Z" fill="#263238"/>
<path d="M114.5 57.5996C114.9 59.5996 115.567 61.5329 116.5 63.3996C115.5 63.8996 114.4 63.8996 113.4 63.4996L114.5 57.5996Z" fill="#DE5753"/>
<path d="M107.9 53.7998C108.033 53.7998 108.167 53.7665 108.3 53.6998C108.9 52.9998 109.9 52.6998 110.8 52.8998C111 52.8998 111.2 52.7998 111.3 52.5998C111.3 52.3998 111.2 52.1998 111 52.0998C109.8 51.8998 108.6 52.2998 107.8 53.0998C107.6 53.2998 107.6 53.4998 107.7 53.6998C107.767 53.6998 107.833 53.7331 107.9 53.7998Z" fill="#263238"/>
<path d="M111.9 66.4992C110 66.4992 108.3 65.5992 107.2 63.9992C107.2 63.8992 107.2 63.7992 107.3 63.6992C107.4 63.6992 107.5 63.6992 107.6 63.7992C108.6 65.1992 110.2 66.0992 111.9 66.0992C112 66.0992 112.1 66.1992 112.1 66.2992C112.1 66.4992 112 66.4992 111.9 66.4992Z" fill="#263238"/>
<path d="M120.2 55.6997C120.267 55.7664 120.333 55.7997 120.4 55.7997C120.6 55.6997 120.7 55.4997 120.7 55.2997C120.4 54.1997 119.5 53.1997 118.4 52.7997C118.2 52.6997 118 52.8997 117.9 52.9997V53.0997C117.9 53.1997 118 53.3997 118.2 53.4997C119 53.8997 119.7 54.5997 120 55.4997C120 55.633 120.067 55.6997 120.2 55.6997Z" fill="#263238"/>
<path d="M109.8 39.8995C108.933 39.7661 108.033 39.6661 107.1 39.5995C104.4 39.3995 101.6 39.7995 99.3 41.0995C94 44.2995 94.9 52.3995 95.6 57.6995C96.5 64.6995 99.3 67.8995 99.3 67.8995C97.6 64.4995 98.1 57.9995 99.2 57.8995C100.3 57.6995 100.2 58.8995 100.2 58.8995C102.6 57.3995 104.8 53.1995 104 50.1995C103.4 47.8995 106 46.1995 108.2 47.2995C108.4 47.3661 108.6 47.4661 108.8 47.5995C109.133 47.7328 109.467 47.8995 109.8 48.0995V39.8995Z" fill="#263238"/>
<path d="M94 57.9991C94.5 59.8991 95.8 61.4991 97.5 62.3991C99.8 63.6991 101.5 61.6991 101.4 59.2991C101.2 57.0991 99.9 53.7991 97.3 53.5991C94.8 53.3991 93.3 55.6991 94 57.9991Z" fill="#E4897B"/>
<path d="M112.9 46.4995C112.4 47.3995 113.7 50.2995 110.8 49.5995C108 48.8995 107.8 50.0995 105.7 52.0995C103.7 54.0995 99.6 51.0995 99.6 51.0995L95.1 51.6995C95.1 51.6995 91.8 48.6995 93.8 47.0995C95.9 45.4995 96.3 43.2995 97.6 40.5995C98.9 37.8995 104.5 34.4995 110.4 38.4995C110.4 38.4995 113.6 37.3995 115 38.1995C116.4 38.9995 117.5 41.0995 117.5 41.0995C117.5 41.0995 119.1 39.2995 120.7 40.9995C122.3 42.6995 121 48.6995 122.4 50.1995C123.8 51.6995 120.7 53.5995 120.7 53.5995C120.7 53.5995 118.3 52.9995 118.3 51.1995C118.3 47.9995 117.8 46.8995 116.2 46.2995C115.3 45.9995 114.6 46.7995 114.6 46.7995C114.6 46.7995 113.7 45.0995 112.9 46.4995Z" fill="#263238"/>
<path opacity="0.2" d="M88.4 108.699C88.1333 106.433 87.8 104.133 87.4 101.799C87.8 101.199 90.6 96.4992 90.8 93.1992C90.8 93.1992 91.2 94.3992 91.3 96.1992C91.6 99.3992 91.5 104.499 88.4 108.699Z" fill="black"/>
<path d="M102.7 101.399L103.7 109.499C103.8 110.599 104.8 111.399 106 111.399L122.7 110.799C124 110.699 124.9 109.599 124.8 108.399L124.2 100.299C124.1 99.0992 123.1 98.1992 121.9 98.1992L104.8 98.9992C103.5 98.9992 102.6 100.199 102.7 101.399Z" fill="#407BFF"/>
<path opacity="0.7" d="M110.8 102L117.9 104.3L111.2 107.7L113 104.8L110.8 102Z" fill="white"/>
<path d="M125.1 97.1L129.6 79.2C129.8 78.5 130.4 78 131.1 78H140.6C141.2 78 141.6 78.5 141.5 79.1L137.1 97.1C136.9 97.8 136.3 98.2 135.6 98.2H126C125.4 98.2 125 97.7 125.1 97.1Z" fill="#263238"/>
<path opacity="0.3" d="M134.2 85C133.3 85 132.4 85.9 132.1 87C131.9 88.1 132.4 89 133.2 89C134.1 89 135.1 88.1 135.3 87C135.6 85.9 135.1 85 134.2 85Z" fill="white"/>
<path d="M159.3 114.9C159.3 114.9 148 96.5995 144.9 93.6995C141.8 90.8995 130 88.8995 129.5 88.7995C129.1 88.6995 126.6 99.1995 127.7 100.1C128.9 101.1 139.3 102.1 140 101.8C140.6 101.5 141.8 101.1 141.8 101.1L151.9 120.9C151.9 120.9 157.7 120.5 159.3 114.9Z" fill="#E4897B"/>
</svg>
